<?xml version="1.0" encoding="utf-8"?>
<!-- Generator: Adobe Illustrator 24.0.1, SVG Export Plug-In . SVG Version: 6.00 Build 0)  -->
<svg version="1.1" id="Layer_1" xmlns="http://www.w3.org/2000/svg" xmlns:xlink="http://www.w3.org/1999/xlink" x="0px" y="0px"
	 viewBox="0 0 400 400" style="enable-background:new 0 0 400 400;" xml:space="preserve">
<style type="text/css">
	.st0{fill:#3B81C4;}
	.st1{fill:#F0A81F;}
	.st2{fill:#58595B;}
	.st3{fill:#FFFFFF;}
	.st4{clip-path:url(#SVGID_2_);fill:url(#SVGID_3_);}
	.st5{clip-path:url(#SVGID_5_);fill:url(#SVGID_6_);}
	.st6{clip-path:url(#SVGID_8_);fill:url(#SVGID_9_);}
	.st7{clip-path:url(#SVGID_11_);fill:url(#SVGID_12_);}
</style>
<g>
	<path class="st0" d="M375.11,174.37c0-16.59-13.45-30.05-30.06-30.05c-16.6,0-30.05,13.47-30.05,30.05
		c0,16.6,13.45,30.05,30.05,30.05c12.51,0,23.24-7.64,27.76-18.51h-12.05c-3.53,4.83-9.26,7.97-15.71,7.97
		c-9.81,0-17.92-7.25-19.28-16.68h49.19C375.07,176.27,375.11,175.33,375.11,174.37z M326.47,168.5c2.47-7.9,9.86-13.62,18.59-13.62
		c8.72,0,16.11,5.73,18.59,13.62H326.47z"/>
	<path class="st1" d="M80.79,174.37c0-16.59-13.45-30.05-30.06-30.05c-16.6,0-30.05,13.47-30.05,30.05
		c0,16.6,13.45,30.05,30.05,30.05c12.51,0,23.24-7.64,27.76-18.51H66.44c-3.53,4.83-9.26,7.97-15.71,7.97
		c-9.81,0-17.92-7.25-19.28-16.68h49.19C80.74,176.27,80.79,175.33,80.79,174.37z M32.15,168.5c2.47-7.9,9.86-13.62,18.59-13.62
		c8.72,0,16.11,5.73,18.59,13.62H32.15z"/>
	<path class="st0" d="M279.2,195.65c-11.74,0-21.25-9.53-21.25-21.28c0-11.74,9.5-21.26,21.25-21.26c6.65,0,12.6,3.07,16.49,7.84
		h13.41c-5.12-11.4-16.58-19.34-29.9-19.34c-18.09,0-32.76,14.68-32.76,32.76c0,18.11,14.67,32.76,32.76,32.76
		c13.32,0,24.78-7.93,29.9-19.34h-13.41C291.8,192.58,285.86,195.65,279.2,195.65z"/>
	
		<rect x="229.84" y="150.35" transform="matrix(-1 -1.224647e-16 1.224647e-16 -1 470.2988 354.7784)" class="st0" width="10.62" height="54.08"/>
	
		<rect x="229.84" y="135.68" transform="matrix(-1 -1.224647e-16 1.224647e-16 -1 470.2988 281.9807)" class="st0" width="10.62" height="10.62"/>
	<path class="st0" d="M213.3,145.04v5.31h8.4v8.59h-7.45v45.49h-10.62v-45.49h-7.43v-8.59h7.43v-5.31c0,0,1.01-13.96,15.5-13.49
		v-0.01h3.31v9.66h-3.31C219.15,141.19,214.17,140.69,213.3,145.04z"/>
	<path class="st0" d="M183.01,145.04v5.31h8.4v8.59h-7.45v45.49h-10.62v-45.49h-7.43v-8.59h7.43v-5.31c0,0,1.01-13.96,15.5-13.49
		v-0.01h3.31v9.66h-3.31C188.85,141.19,183.88,140.69,183.01,145.04z"/>
	<g>
		<g>
			<path class="st2" d="M28.63,242.76l5.57-14.49h2.07l5.93,14.49h-2.19l-1.69-4.39h-6.06l-1.59,4.39H28.63z M32.81,236.81h4.91
				l-1.51-4.01c-0.46-1.22-0.8-2.22-1.03-3.01c-0.18,0.93-0.44,1.85-0.78,2.77L32.81,236.81z"/>
			<path class="st2" d="M48.24,242.76v-14.49h4.99c1.13,0,1.99,0.07,2.58,0.21c0.83,0.19,1.54,0.54,2.13,1.04
				c0.76,0.65,1.34,1.47,1.72,2.48c0.38,1,0.57,2.15,0.57,3.45c0,1.1-0.13,2.08-0.39,2.93c-0.26,0.85-0.59,1.55-0.99,2.11
				c-0.4,0.56-0.84,1-1.32,1.32s-1.05,0.56-1.73,0.73c-0.68,0.16-1.45,0.25-2.33,0.25H48.24z M50.15,241.05h3.09
				c0.96,0,1.71-0.09,2.25-0.27c0.54-0.18,0.98-0.43,1.3-0.75c0.45-0.45,0.81-1.07,1.06-1.83c0.25-0.77,0.38-1.7,0.38-2.79
				c0-1.52-0.25-2.68-0.75-3.5c-0.5-0.81-1.1-1.36-1.81-1.64c-0.51-0.2-1.34-0.3-2.48-0.3h-3.05V241.05z"/>
			<path class="st2" d="M63.19,242.76v-14.49h1.92v14.49H63.19z"/>
			<path class="st2" d="M75.27,237.08v-1.7l6.14-0.01v5.38c-0.94,0.75-1.91,1.32-2.92,1.7c-1,0.38-2.03,0.57-3.08,0.57
				c-1.42,0-2.72-0.31-3.88-0.91c-1.16-0.61-2.04-1.49-2.63-2.64c-0.59-1.15-0.89-2.44-0.89-3.87c0-1.41,0.3-2.73,0.88-3.95
				c0.59-1.22,1.44-2.13,2.55-2.72c1.11-0.59,2.38-0.89,3.83-0.89c1.05,0,2,0.17,2.84,0.51c0.85,0.34,1.51,0.81,1.99,1.42
				c0.48,0.61,0.85,1.4,1.1,2.37l-1.73,0.47c-0.22-0.74-0.49-1.32-0.81-1.74c-0.32-0.42-0.78-0.76-1.38-1.01
				c-0.6-0.25-1.27-0.38-2-0.38c-0.88,0-1.63,0.13-2.27,0.4c-0.64,0.27-1.16,0.62-1.55,1.05c-0.39,0.44-0.7,0.91-0.91,1.43
				c-0.37,0.9-0.55,1.87-0.55,2.92c0,1.29,0.22,2.37,0.67,3.24c0.44,0.87,1.09,1.52,1.94,1.94c0.85,0.42,1.75,0.63,2.71,0.63
				c0.83,0,1.64-0.16,2.43-0.48c0.79-0.32,1.39-0.66,1.8-1.02v-2.7H75.27z"/>
			<path class="st2" d="M84.56,242.76v-14.49h1.92v14.49H84.56z"/>
			<path class="st2" d="M93.55,242.76v-12.78h-4.78v-1.71h11.49v1.71h-4.8v12.78H93.55z"/>
			<path class="st2" d="M99.13,242.76l5.57-14.49h2.07l5.93,14.49h-2.19l-1.69-4.39h-6.06l-1.59,4.39H99.13z M103.32,236.81h4.91
				l-1.51-4.01c-0.46-1.22-0.8-2.22-1.03-3.01c-0.18,0.93-0.44,1.85-0.78,2.77L103.32,236.81z"/>
			<path class="st2" d="M114.15,242.76v-14.49h1.92v12.78h7.14v1.71H114.15z"/>
			<path class="st2" d="M132.9,242.76l-3.85-14.49h1.97l2.2,9.5c0.24,0.99,0.44,1.98,0.61,2.97c0.37-1.55,0.59-2.44,0.65-2.68
				l2.76-9.79h2.31l2.08,7.34c0.52,1.82,0.9,3.53,1.13,5.13c0.18-0.92,0.43-1.97,0.72-3.15l2.27-9.31h1.93l-3.97,14.49h-1.85
				l-3.06-11.04c-0.26-0.92-0.41-1.49-0.45-1.7c-0.15,0.67-0.29,1.23-0.43,1.7l-3.07,11.04H132.9z"/>
			<path class="st2" d="M148.9,235.7c0-2.41,0.65-4.29,1.94-5.65c1.29-1.36,2.96-2.04,5-2.04c1.34,0,2.54,0.32,3.62,0.96
				c1.07,0.64,1.89,1.53,2.46,2.67c0.56,1.14,0.85,2.44,0.85,3.89c0,1.47-0.3,2.78-0.89,3.94c-0.59,1.16-1.43,2.04-2.52,2.63
				c-1.09,0.6-2.26,0.89-3.52,0.89c-1.36,0-2.58-0.33-3.66-0.99c-1.07-0.66-1.89-1.56-2.44-2.7
				C149.17,238.18,148.9,236.98,148.9,235.7z M150.87,235.73c0,1.75,0.47,3.12,1.41,4.13c0.94,1,2.12,1.51,3.53,1.51
				c1.44,0,2.63-0.51,3.56-1.52c0.93-1.01,1.4-2.46,1.4-4.32c0-1.18-0.2-2.21-0.6-3.09c-0.4-0.88-0.98-1.56-1.75-2.05
				c-0.77-0.48-1.63-0.73-2.59-0.73c-1.36,0-2.53,0.47-3.5,1.4C151.36,232,150.87,233.55,150.87,235.73z"/>
			<path class="st2" d="M165.26,242.76v-14.49h6.43c1.29,0,2.27,0.13,2.95,0.39c0.67,0.26,1.21,0.72,1.61,1.38
				c0.4,0.66,0.6,1.39,0.6,2.18c0,1.03-0.33,1.89-1,2.6c-0.67,0.71-1.69,1.15-3.08,1.34c0.51,0.24,0.89,0.48,1.16,0.72
				c0.56,0.51,1.09,1.16,1.59,1.93l2.52,3.94h-2.41l-1.92-3.02c-0.56-0.87-1.02-1.54-1.38-2c-0.36-0.46-0.69-0.78-0.97-0.97
				c-0.29-0.18-0.58-0.31-0.88-0.39c-0.22-0.05-0.57-0.07-1.07-0.07h-2.22v6.44H165.26z M167.18,234.67h4.12
				c0.88,0,1.56-0.09,2.06-0.27c0.49-0.18,0.87-0.47,1.13-0.87c0.26-0.4,0.39-0.83,0.39-1.3c0-0.69-0.25-1.25-0.75-1.69
				c-0.5-0.44-1.28-0.66-2.36-0.66h-4.59V234.67z"/>
			<path class="st2" d="M179.77,242.76v-14.49h1.92v7.19l7.2-7.19h2.6l-6.08,5.87l6.35,8.62h-2.53l-5.16-7.34l-2.37,2.31v5.02
				H179.77z"/>
			<path class="st2" d="M193.36,242.76v-14.49h5.47c0.96,0,1.7,0.05,2.2,0.14c0.71,0.12,1.31,0.34,1.79,0.68
				c0.48,0.33,0.87,0.8,1.16,1.4c0.29,0.6,0.44,1.26,0.44,1.98c0,1.23-0.39,2.28-1.18,3.13c-0.78,0.85-2.2,1.28-4.25,1.28h-3.72
				v5.89H193.36z M195.28,235.16h3.75c1.24,0,2.12-0.23,2.64-0.69c0.52-0.46,0.78-1.11,0.78-1.95c0-0.61-0.15-1.13-0.46-1.56
				c-0.31-0.43-0.71-0.72-1.21-0.86c-0.32-0.09-0.92-0.13-1.79-0.13h-3.71V235.16z"/>
			<path class="st2" d="M206.79,242.76v-14.49h1.92v12.78h7.14v1.71H206.79z"/>
			<path class="st2" d="M216.53,242.76l5.57-14.49h2.07l5.93,14.49h-2.19l-1.69-4.39h-6.06l-1.59,4.39H216.53z M220.72,236.81h4.91
				l-1.51-4.01c-0.46-1.22-0.8-2.22-1.03-3.01c-0.18,0.93-0.44,1.85-0.78,2.77L220.72,236.81z"/>
			<path class="st2" d="M241.97,237.68l1.92,0.48c-0.4,1.58-1.13,2.78-2.17,3.6c-1.05,0.83-2.32,1.24-3.83,1.24
				c-1.56,0-2.83-0.32-3.81-0.95c-0.98-0.64-1.72-1.56-2.23-2.76c-0.51-1.21-0.77-2.5-0.77-3.89c0-1.51,0.29-2.83,0.87-3.95
				c0.58-1.12,1.4-1.98,2.46-2.56c1.06-0.58,2.24-0.88,3.51-0.88c1.45,0,2.67,0.37,3.66,1.11c0.99,0.74,1.68,1.78,2.07,3.11
				l-1.89,0.44c-0.34-1.05-0.82-1.82-1.46-2.3c-0.64-0.48-1.44-0.72-2.41-0.72c-1.11,0-2.05,0.27-2.79,0.8
				c-0.75,0.53-1.27,1.25-1.58,2.15c-0.3,0.9-0.45,1.83-0.45,2.78c0,1.23,0.18,2.31,0.54,3.23c0.36,0.92,0.92,1.61,1.68,2.06
				c0.76,0.45,1.58,0.68,2.46,0.68c1.07,0,1.98-0.31,2.73-0.93C241.21,239.82,241.71,238.9,241.97,237.68z"/>
			<path class="st2" d="M246.29,242.76v-14.49h10.48v1.71h-8.56v4.44h8.02v1.7h-8.02v4.93h8.9v1.71H246.29z"/>
			<path class="st2" d="M264.73,238.11l1.81-0.16c0.09,0.73,0.29,1.32,0.6,1.78c0.31,0.46,0.8,0.84,1.46,1.13
				c0.66,0.29,1.4,0.43,2.22,0.43c0.73,0,1.38-0.11,1.94-0.33c0.56-0.22,0.98-0.52,1.25-0.89c0.27-0.38,0.41-0.79,0.41-1.24
				c0-0.45-0.13-0.85-0.4-1.19c-0.26-0.34-0.7-0.62-1.31-0.86c-0.39-0.15-1.25-0.39-2.58-0.71c-1.33-0.32-2.26-0.62-2.8-0.9
				c-0.69-0.36-1.21-0.81-1.55-1.35c-0.34-0.54-0.51-1.14-0.51-1.8c0-0.73,0.21-1.42,0.62-2.05c0.42-0.64,1.02-1.12,1.82-1.45
				c0.8-0.33,1.69-0.49,2.66-0.49c1.07,0,2.02,0.17,2.84,0.52c0.82,0.35,1.45,0.86,1.89,1.53c0.44,0.67,0.68,1.43,0.71,2.28
				l-1.84,0.14c-0.1-0.92-0.43-1.61-1-2.08c-0.57-0.47-1.41-0.7-2.53-0.7c-1.16,0-2.01,0.21-2.54,0.64c-0.53,0.43-0.8,0.94-0.8,1.54
				c0,0.52,0.19,0.95,0.56,1.29c0.37,0.34,1.33,0.68,2.89,1.03c1.56,0.35,2.63,0.66,3.21,0.92c0.84,0.39,1.47,0.88,1.87,1.48
				c0.4,0.6,0.6,1.28,0.6,2.06c0,0.77-0.22,1.5-0.66,2.18c-0.44,0.68-1.08,1.21-1.9,1.59c-0.83,0.38-1.76,0.57-2.79,0.57
				c-1.31,0-2.41-0.19-3.3-0.57c-0.89-0.38-1.58-0.96-2.09-1.73C265.03,239.95,264.76,239.08,264.73,238.11z"/>
			<path class="st2" d="M278.31,235.7c0-2.41,0.65-4.29,1.94-5.65c1.29-1.36,2.96-2.04,5-2.04c1.34,0,2.55,0.32,3.62,0.96
				c1.07,0.64,1.89,1.53,2.46,2.67c0.56,1.14,0.84,2.44,0.84,3.89c0,1.47-0.3,2.78-0.89,3.94c-0.59,1.16-1.43,2.04-2.52,2.63
				c-1.09,0.6-2.26,0.89-3.52,0.89c-1.36,0-2.58-0.33-3.66-0.99c-1.07-0.66-1.89-1.56-2.44-2.7
				C278.58,238.18,278.31,236.98,278.31,235.7z M280.29,235.73c0,1.75,0.47,3.12,1.41,4.13c0.94,1,2.12,1.51,3.53,1.51
				c1.44,0,2.63-0.51,3.57-1.52c0.93-1.01,1.4-2.46,1.4-4.32c0-1.18-0.2-2.21-0.6-3.09c-0.4-0.88-0.98-1.56-1.75-2.05
				c-0.77-0.48-1.63-0.73-2.59-0.73c-1.36,0-2.53,0.47-3.5,1.4C280.78,232,280.29,233.55,280.29,235.73z"/>
			<path class="st2" d="M294.56,242.76v-14.49h1.92v12.78h7.14v1.71H294.56z"/>
			<path class="st2" d="M315.41,228.27h1.92v8.37c0,1.46-0.16,2.61-0.49,3.47c-0.33,0.86-0.92,1.55-1.78,2.09
				c-0.86,0.54-1.99,0.81-3.39,0.81c-1.36,0-2.47-0.23-3.33-0.7c-0.86-0.47-1.48-1.15-1.85-2.03c-0.37-0.89-0.55-2.1-0.55-3.63
				v-8.37h1.92v8.36c0,1.26,0.12,2.19,0.35,2.78c0.23,0.6,0.64,1.06,1.21,1.38c0.57,0.32,1.27,0.48,2.09,0.48
				c1.41,0,2.42-0.32,3.02-0.96c0.6-0.64,0.9-1.87,0.9-3.69V228.27z"/>
			<path class="st2" d="M324.21,242.76v-12.78h-4.78v-1.71h11.49v1.71h-4.8v12.78H324.21z"/>
			<path class="st2" d="M333.22,242.76v-14.49h1.92v14.49H333.22z"/>
			<path class="st2" d="M337.94,235.7c0-2.41,0.65-4.29,1.94-5.65c1.29-1.36,2.96-2.04,5-2.04c1.34,0,2.55,0.32,3.62,0.96
				c1.07,0.64,1.89,1.53,2.46,2.67c0.56,1.14,0.84,2.44,0.84,3.89c0,1.47-0.3,2.78-0.89,3.94c-0.59,1.16-1.43,2.04-2.52,2.63
				c-1.09,0.6-2.26,0.89-3.52,0.89c-1.36,0-2.58-0.33-3.66-0.99c-1.07-0.66-1.89-1.56-2.44-2.7
				C338.21,238.18,337.94,236.98,337.94,235.7z M339.91,235.73c0,1.75,0.47,3.12,1.41,4.13c0.94,1,2.12,1.51,3.53,1.51
				c1.44,0,2.63-0.51,3.57-1.52c0.93-1.01,1.4-2.46,1.4-4.32c0-1.18-0.2-2.21-0.6-3.09c-0.4-0.88-0.98-1.56-1.75-2.05
				c-0.77-0.48-1.63-0.73-2.59-0.73c-1.36,0-2.53,0.47-3.5,1.4C340.4,232,339.91,233.55,339.91,235.73z"/>
			<path class="st2" d="M354.25,242.76v-14.49h1.97l7.61,11.38v-11.38h1.84v14.49h-1.97l-7.61-11.39v11.39H354.25z"/>
		</g>
	</g>
	<g>
		<path class="st0" d="M160.39,167.65c0,20.31-16.59,36.77-37.05,36.77c-20.46,0-37.05-16.46-37.05-36.77
			c0-20.31,16.59-36.77,37.05-36.77C143.81,130.89,160.39,147.35,160.39,167.65L160.39,167.65z"/>
		<path class="st3" d="M150.53,167.45c0,14.79-12.08,26.77-26.97,26.77c-14.9,0-26.98-11.99-26.98-26.77
			c0-14.79,12.08-26.77,26.98-26.77C138.46,140.67,150.53,152.66,150.53,167.45L150.53,167.45z"/>
		<g>
			<defs>
				<path id="SVGID_1_" d="M123.26,142.66c-2.41,0-4.86,0.35-7.29,1.09c-13.18,4.02-20.61,17.96-16.6,31.14
					c4.02,13.18,17.96,20.61,31.14,16.59c13.18-4.02,20.61-17.95,16.59-31.14C143.84,149.59,133.95,142.66,123.26,142.66
					C123.26,142.66,123.26,142.66,123.26,142.66"/>
			</defs>
			<clipPath id="SVGID_2_">
				<use xlink:href="#SVGID_1_"  style="overflow:visible;"/>
			</clipPath>
			
				<linearGradient id="SVGID_3_" gradientUnits="userSpaceOnUse" x1="-106.3045" y1="590.9463" x2="-104.7982" y2="590.9463" gradientTransform="matrix(33.1396 0 0 -33.1396 3621.1736 19752.8086)">
				<stop  offset="0" style="stop-color:#CBE4F5"/>
				<stop  offset="0.6742" style="stop-color:#4A9CD6"/>
				<stop  offset="1" style="stop-color:#4A9CD6"/>
			</linearGradient>
			<rect x="95.36" y="142.66" class="st4" width="55.77" height="52.84"/>
		</g>
		<g>
			<defs>
				<path id="SVGID_4_" d="M99.98,167.11c-0.19,13.04,10.28,23.78,23.39,23.97c13.11,0.19,23.9-10.22,24.09-23.27
					c0-0.19,0-0.38,0-0.56c-0.49,12.78-11.14,22.08-24.06,21.89c-12.92-0.19-23.29-9.81-23.4-22.6
					C100,166.73,99.99,166.92,99.98,167.11"/>
			</defs>
			<clipPath id="SVGID_5_">
				<use xlink:href="#SVGID_4_"  style="overflow:visible;"/>
			</clipPath>
			
				<linearGradient id="SVGID_6_" gradientUnits="userSpaceOnUse" x1="-106.3511" y1="590.5637" x2="-104.8448" y2="590.5637" gradientTransform="matrix(31.5314 0 0 -31.5314 3453.3765 18800.209)">
				<stop  offset="0" style="stop-color:#CBE4F5"/>
				<stop  offset="0.3531" style="stop-color:#7BA7D8"/>
				<stop  offset="0.6593" style="stop-color:#3782C4"/>
				<stop  offset="1" style="stop-color:#3782C4"/>
			</linearGradient>
			<rect x="99.79" y="166.54" class="st5" width="47.68" height="24.73"/>
		</g>
		<g>
			<defs>
				<path id="SVGID_7_" d="M115.82,144.5c-9.97,3.03-16.31,11.17-14.18,18.17c2.14,7,11.94,10.22,21.91,7.18
					c9.97-3.04,16.31-11.18,14.18-18.18c-1.59-5.21-7.42-8.32-14.41-8.32C120.91,143.35,118.37,143.72,115.82,144.5"/>
			</defs>
			<clipPath id="SVGID_8_">
				<use xlink:href="#SVGID_7_"  style="overflow:visible;"/>
			</clipPath>
			
				<linearGradient id="SVGID_9_" gradientUnits="userSpaceOnUse" x1="-106.749" y1="588.9506" x2="-105.2428" y2="588.9506" gradientTransform="matrix(24.507 0 0 -24.507 2717.3279 14591.5313)">
				<stop  offset="0" style="stop-color:#3E9DD7"/>
				<stop  offset="1" style="stop-color:#6AB9E7"/>
			</linearGradient>
			<rect x="99.51" y="143.35" class="st6" width="40.35" height="29.54"/>
		</g>
		<g>
			<path class="st3" d="M130.01,148.15c0.58,0.39,0.93,0.94,0.77,1.21c-0.17,0.31-0.83,0.18-1.48-0.25c-0.64-0.45-0.98-1-0.74-1.26
				C128.77,147.63,129.43,147.75,130.01,148.15"/>
			<path class="st3" d="M128.45,146.85c0.31,0.16,0.49,0.37,0.39,0.46c-0.11,0.09-0.45,0.03-0.78-0.16
				c-0.33-0.17-0.49-0.38-0.37-0.46C127.8,146.62,128.13,146.69,128.45,146.85"/>
		</g>
		<g>
			<defs>
				<path id="SVGID_10_" d="M131.55,179.1c0.1-0.14,0.13-0.32,0.09-0.53c2.21,0.07,4.37,0.26,6.51,0.55
					c-1.1,0.51-2.27,0.99-3.57,1.48c-0.28-0.18-0.61-0.31-0.93-0.36c-0.14-0.02-0.27-0.02-0.39,0
					C132.67,179.85,132.1,179.47,131.55,179.1 M139.69,178.98c1.16-0.57,2.23-1.19,3.25-1.91c0.31,0.33,0.71,0.61,1.06,0.72
					l0.19,0.29c-0.46,0.07-0.59,0.54-0.21,1.22c0.09,0.18,0.23,0.37,0.37,0.54C142.81,179.51,141.26,179.22,139.69,178.98
					 M117.84,179.21c2.12-1.67,3.91-3.18,5.47-4.65c0.15,0.07,0.32,0.11,0.5,0.11l0.34-0.05c1.24,0.99,2.61,2,4.15,3.07
					c-0.06,0.14-0.08,0.3-0.04,0.48l0.01,0.05c-3.35,0.09-6.79,0.46-10.33,1.19L117.84,179.21z M143.02,175.56l-0.05-0.01
					c-1.11-1.89-2.02-3.74-2.76-5.56l0.15-0.07c1.37,1.03,2.82,2.16,4.38,3.41c0.01,0.18,0.05,0.39,0.13,0.6
					c0.07,0.19,0.16,0.37,0.26,0.54c-0.51,0.49-1.02,0.94-1.55,1.36C143.39,175.7,143.2,175.6,143.02,175.56 M106.79,176.24
					c1.09-2.15,1.95-4.26,2.59-6.32h0.09c0.62-0.06,1.23-0.68,1.42-1.45c1.57-0.35,3.13-0.66,4.69-0.94
					c-0.02,0.62,0.16,1.17,0.48,1.55c-2.6,2.04-5.5,4.37-9.05,7.38L106.79,176.24z M132.6,166.6c0.71,0,1.29-0.44,1.59-1.11
					c1.46,1,2.99,2.08,4.63,3.29l0.01,0.08c0.1,0.55,0.54,1.02,0.99,1.13c0.74,1.83,1.66,3.68,2.79,5.59
					c-0.24,0.11-0.31,0.42-0.12,0.84l0.08,0.16c-1.19,0.85-2.44,1.58-3.83,2.25c-2.37-0.33-4.78-0.55-7.23-0.62
					c-0.33-0.6-1.1-1.1-1.88-1.16c-0.33-0.02-0.62,0.03-0.85,0.14c-1.5-1.07-2.85-2.08-4.07-3.08l0.04-0.28
					c0-0.18-0.08-0.34-0.2-0.48c2.44-2.41,4.41-4.77,6.52-7.5C131.47,166.31,132.01,166.6,132.6,166.6
					C132.6,166.6,132.6,166.6,132.6,166.6 M118.97,168.72c0.27-0.37,0.44-0.83,0.45-1.32c0-0.16-0.01-0.31-0.04-0.46l0.06-0.05
					c3.73-0.58,7.45-1.08,11.2-1.76c0.05,0.15,0.12,0.28,0.2,0.41c-2.15,2.75-4.13,5.14-6.59,7.58c-0.14-0.08-0.3-0.12-0.48-0.11
					l-0.32,0.06C121.81,171.65,120.36,170.24,118.97,168.72 M134.42,164.68l0.02-0.31c0.84-0.19,1.69-0.38,2.54-0.6
					c0.22,0.46,0.64,0.76,1.1,0.75c0.27,1.14,0.6,2.29,0.99,3.45l-0.02,0.02C137.41,166.78,135.88,165.69,134.42,164.68
					 M126.82,161.14c0.15,0.15,0.35,0.23,0.56,0.23c0.17,0,0.33-0.06,0.46-0.17c0.98,0.66,1.96,1.32,2.96,1.98
					c-0.19,0.36-0.29,0.76-0.28,1.19c-3.31,0.64-6.57,1.1-9.83,1.58C122.74,164.37,124.71,162.84,126.82,161.14 M110.25,166.66
					c0.5-2.27,0.76-4.5,0.85-6.71c1.78,2.4,3.31,4.47,4.8,6.32c-0.07,0.13-0.13,0.28-0.17,0.42c-1.6,0.26-3.2,0.55-4.81,0.87
					C110.82,167.15,110.57,166.81,110.25,166.66 M133.71,162.41c0.9-1.19,1.85-2.45,2.9-3.81c0.14,0.14,0.32,0.21,0.55,0.16
					l0.06-0.01c0.06,0.92,0.16,1.85,0.3,2.78c-0.39,0.31-0.67,0.82-0.7,1.39c-0.82,0.22-1.64,0.43-2.46,0.63
					C134.23,163.08,134.01,162.68,133.71,162.41 M128.24,160.52l0.02-0.13l-0.06-0.38c2.64-2.15,5.54-4.62,9.09-7.77
					c-0.12,1.48-0.18,2.98-0.15,4.49c-0.35,0.24-0.65,0.67-0.71,1.12c-0.02,0.15-0.02,0.29,0.01,0.41
					c-1.09,1.41-2.08,2.71-3.01,3.93c-0.28-0.17-0.6-0.25-0.95-0.22c-0.45,0.04-0.87,0.25-1.2,0.57
					C130.25,161.87,129.25,161.2,128.24,160.52 M111.09,148.7c6.55,5.35,11.13,8.69,15.47,11.64l-0.02,0.13l0.07,0.37
					c-2.3,1.85-4.44,3.5-6.67,5.22c-0.27,0.04-0.55,0.08-0.82,0.12c-0.34-0.58-0.91-0.99-1.57-1c-0.45-0.01-0.87,0.17-1.21,0.49
					c-1.61-1.98-3.27-4.18-5.23-6.77c0.04-3.41-0.34-6.76-0.96-10.1c0.16,0.05,0.3,0.07,0.43,0.07
					C110.79,148.87,110.96,148.81,111.09,148.7 M106.7,153.13c0.03-0.22,0.01-0.49-0.09-0.8c-0.1-0.33-0.27-0.66-0.47-0.98
					c0.83-1.24,1.67-2.37,2.65-3.47c0.3,0.3,0.62,0.55,0.93,0.72c0.64,3.23,1.04,6.5,1.05,9.82
					C109.55,156.82,108.21,155.06,106.7,153.13 M107.78,148.1c-0.72,0.86-1.37,1.77-2.01,2.74c-0.15-0.18-0.31-0.34-0.46-0.49
					c-0.4,0.42-0.79,0.85-1.16,1.29c0.15,0.34,0.32,0.67,0.52,0.96c-1.63,2.75-3.34,6.12-5.98,10.87c-0.07,0.4-0.13,0.8-0.17,1.2
					c2.93-5.11,4.78-8.69,6.53-11.59c0.26,0.29,0.53,0.5,0.79,0.59c0.23,0.09,0.41,0.08,0.56,0c1.63,2.15,3.06,4.07,4.36,5.83
					c-0.06,2.32-0.32,4.68-0.83,7.07l-0.04,0c-0.62-0.01-1.17,0.66-1.35,1.52c-3.26,0.77-6.56,1.78-9.93,3.19
					c0.06,0.38,0.12,0.76,0.19,1.14c3.3-1.48,6.53-2.55,9.72-3.38c0.07,0.39,0.27,0.68,0.55,0.8c-0.65,2.09-1.51,4.21-2.61,6.38
					l-0.02,0c-0.51,0.13-1.13,0.78-1.39,1.43c-0.09,0.23-0.13,0.42-0.11,0.57c-0.91,0.79-1.87,1.63-2.88,2.51l0.14,0.22
					c0.99-0.86,1.96-1.69,2.87-2.47l0.14,0.05c-0.67,1.17-1.43,2.35-2.25,3.55l0.17,0.24c0.91-1.3,1.73-2.58,2.46-3.85
					c0.54-0.21,1.15-0.8,1.38-1.39l0.07-0.26c3.66-3.07,6.63-5.44,9.29-7.51c0.29,0.21,0.64,0.32,1.04,0.3
					c0.39-0.02,0.76-0.16,1.07-0.38c1.38,1.52,2.82,2.92,4.47,4.32l-0.07,0.29c0,0.18,0.07,0.34,0.18,0.47
					c-1.57,1.48-3.35,3-5.47,4.69c-0.15-0.05-0.33-0.07-0.54-0.04c-0.58,0.08-1.14,0.5-1.33,0.94c-3.65,0.91-7.41,2.22-11.29,3.99
					l0.19,0.22c3.8-1.71,7.47-2.98,11.05-3.87l0.08,0.19c-2.39,1.83-5.2,3.86-8.55,6.21l0.2,0.17c3.4-2.35,6.24-4.37,8.65-6.2
					c0.16,0.05,0.35,0.06,0.58,0.02c0.63-0.1,1.21-0.49,1.35-0.91c3.6-0.75,7.1-1.12,10.5-1.19c0.32,0.49,1.05,0.87,1.83,0.94
					c0.25,0.02,0.48,0.01,0.67-0.03c0.58,0.38,1.17,0.76,1.8,1.16l0.03,0.27l0.21,0.32c-4.47,1.64-10.25,3.54-18.46,7.05
					c-0.23-0.03-0.52-0.02-0.86,0.04c-0.54,0.1-1.07,0.32-1.47,0.57c-0.56,0.06-1.11,0.14-1.66,0.21c0.3,0.18,0.6,0.34,0.9,0.51
					l0.06-0.01l-0.04,0.02c0.2,0.1,0.41,0.21,0.61,0.31c0.23,0.01,0.53,0,0.87-0.07c0.58-0.11,1.14-0.31,1.54-0.54
					c5.82-0.43,12.16-0.13,19.07,1.1c0.29-0.13,0.58-0.27,0.86-0.41c-7.03-1.37-13.47-1.74-19.34-1.37l-0.14-0.21
					c8.21-3.44,14-5.29,18.46-6.88c0.28,0.17,0.64,0.31,0.98,0.36c0.16,0.03,0.3,0.03,0.42,0.02c1.78,1.11,3.74,2.31,5.91,3.62
					l0.37-0.36c-2.11-1.31-4.03-2.51-5.76-3.62l-0.06-0.27l-0.24-0.33c1.51-0.56,2.87-1.1,4.11-1.69c1.92,0.29,3.8,0.65,5.67,1.08
					c0.32-0.55,0.63-1.11,0.91-1.68c-0.33-0.25-0.68-0.44-0.98-0.53l-0.12-0.03l-0.18-0.27c0.29-0.06,0.35-0.4,0.13-0.88
					c-0.12-0.25-0.28-0.49-0.48-0.71c0.48-0.39,0.96-0.81,1.44-1.26c0.38,0.47,0.86,0.85,1.31,1.05c0.25-0.69,0.46-1.39,0.65-2.1
					c-0.11-0.21-0.24-0.4-0.37-0.58c0.23-0.25,0.47-0.52,0.7-0.8c0.08-0.4,0.15-0.8,0.21-1.21c-0.44,0.55-0.88,1.06-1.31,1.54
					c-0.33-0.31-0.67-0.53-1-0.59c-0.32-0.05-0.56,0.05-0.72,0.25c-1.52-1.25-2.94-2.36-4.29-3.38l-0.03-0.22
					c-0.12-0.63-0.6-1.15-1.08-1.16l-0.14,0.01c-0.38-1.14-0.7-2.26-0.96-3.38c0.45-0.18,0.79-0.68,0.89-1.31
					c2.57-0.75,5.16-1.68,7.8-2.84c-0.1-0.34-0.22-0.68-0.34-1.02c-2.54,1.18-5.04,2.13-7.5,2.91c-0.16-0.63-0.61-1.02-1.17-0.94
					l-0.26,0.07c-0.13-0.93-0.22-1.85-0.27-2.77c0.29-0.24,0.53-0.64,0.6-1.07c0.05-0.32-0.01-0.58-0.15-0.74
					c1.26-1.61,2.66-3.36,4.23-5.27l-0.19-0.22c-1.61,1.93-3.04,3.7-4.33,5.33l-0.25,0c-0.01-1.59,0.06-3.16,0.22-4.72
					c0.85-0.75,1.73-1.55,2.66-2.38l-0.21-0.2c-0.83,0.74-1.63,1.45-2.4,2.13c0.13-1.23,0.31-2.47,0.52-3.69l-0.4-0.3
					c-0.24,1.46-0.44,2.91-0.57,4.38c-3.65,3.21-6.63,5.73-9.32,7.92c-0.15-0.14-0.35-0.22-0.57-0.22
					c-0.17,0.01-0.33,0.08-0.47,0.17c-4.34-2.92-8.96-6.23-15.6-11.54c0.02-0.22-0.01-0.47-0.12-0.75c-0.14-0.4-0.39-0.8-0.7-1.18
					C109.57,146.77,108.65,147.41,107.78,148.1"/>
			</defs>
			<clipPath id="SVGID_11_">
				<use xlink:href="#SVGID_10_"  style="overflow:visible;"/>
			</clipPath>
			
				<radialGradient id="SVGID_12_" cx="-105.5326" cy="594.4756" r="1.5062" gradientTransform="matrix(77.0375 0 0 -77.0375 8235.1309 45949.3438)" gradientUnits="userSpaceOnUse">
				<stop  offset="0" style="stop-color:#FFFFFF"/>
				<stop  offset="0.0562" style="stop-color:#FFFFFF"/>
				<stop  offset="0.1766" style="stop-color:#DAF0FC"/>
				<stop  offset="0.3034" style="stop-color:#BAE4FA"/>
				<stop  offset="0.3342" style="stop-color:#A8D2F0"/>
				<stop  offset="0.4686" style="stop-color:#6299D1"/>
				<stop  offset="0.5646" style="stop-color:#307CC0"/>
				<stop  offset="0.6124" style="stop-color:#0D73BB"/>
				<stop  offset="0.7119" style="stop-color:#5392CE"/>
				<stop  offset="0.8764" style="stop-color:#AAE0F8"/>
				<stop  offset="1" style="stop-color:#AAE0F8"/>
			</radialGradient>
			<rect x="98.52" y="146.2" class="st7" width="49.45" height="44.2"/>
		</g>
	</g>
</g>
</svg>
