<svg id="Layer_1" data-name="Layer 1" xmlns="http://www.w3.org/2000/svg" viewBox="0 0 537.36 324.39"><defs><style>.cls-1{fill:#0b4c7d;}.cls-2{fill:#231f20;}.cls-3{fill:#cd2027;}.cls-4{fill:#fff;}</style></defs><path class="cls-1" d="M144.85,159.24h9.41v10.82c0,1.08.65,1.61,2,1.61s1.89-.53,1.89-1.61v-5.59q0-2.57-3.42-6a93.74,93.74,0,0,1-8.23-8.62,8,8,0,0,1-1.61-4.84V139.7q0-9.18,12-9.18,10.74,0,10.74,8.35V147h-9.41v-8.68c0-.95-.52-1.42-1.57-1.42-1.23,0-1.85.91-1.85,2.73l.2,3.06c0,1.76,1.16,3.8,3.5,6.12a80.26,80.26,0,0,1,8.26,8.69,9.41,9.41,0,0,1,1.76,5.59v6q0,9.41-12,9.41-11.61,0-11.6-8.55Z"/><path class="cls-1" d="M192.52,161.93H180v8.92c0,1.29.54,1.94,1.61,1.94s1.58-.65,1.58-1.94v-7.7h9.38v7.77q0,7.72-11,7.73t-10.92-8.06V147.72q0-8.06,10.92-8.06t11,7.73Zm-9.38-5.72v-8.75c0-1.25-.52-1.88-1.58-1.88s-1.61.63-1.61,1.88v8.75Z"/><path class="cls-1" d="M216.83,155.75h-9.37v-8.29q0-1.74-1.62-1.74c-1.07,0-1.61.55-1.61,1.67v30.73h-9.37v-38.2h9.37v1.29q1.88-1.54,5.79-1.55a7.81,7.81,0,0,1,4.81,1.5,4.69,4.69,0,0,1,2,3.93Z"/><path class="cls-1" d="M242.86,139.92,236,178.12H224.7l-6.91-38.2h9.42l3.24,22.57,3.15-22.57Z"/><path class="cls-1" d="M253.35,137.82H244v-6.88h9.38Zm0,40.3H244v-38.2h9.38Z"/><path class="cls-1" d="M277.24,156.84h-9.38v-9.38c0-1.25-.53-1.88-1.58-1.88s-1.61.63-1.61,1.88v23.39c0,1.29.54,1.94,1.61,1.94s1.58-.65,1.58-1.94v-9.24h9.38v9.31q0,7.72-10.83,7.73-11.12,0-11.12-8.06V147.72q0-8.06,11.12-8.06,10.83,0,10.83,7.73Z"/><path class="cls-1" d="M301.25,161.93H288.68v8.92c0,1.29.54,1.94,1.62,1.94s1.58-.65,1.58-1.94v-7.7h9.37v7.77q0,7.72-11,7.73t-10.92-8.06V147.72q0-8.06,10.92-8.06t11,7.73Zm-9.37-5.72v-8.75c0-1.25-.53-1.88-1.58-1.88s-1.62.63-1.62,1.88v8.75Z"/><path class="cls-1" d="M313.56,160.75v17.37h-10.1V130.94h10.89c4.32,0,7.52.55,9.62,1.65s3.14,3.33,3.14,6.71v13.09c0,3.1-.86,5.28-2.57,6.57S319.17,160.84,313.56,160.75Zm3.45-9.24V140.19c0-1.67-1.15-2.5-3.45-2.5V154C315.86,154,317,153.17,317,151.51Z"/><path class="cls-1" d="M338.33,178.12H329V130.94h9.38Z"/><path class="cls-1" d="M362.41,178.12H353v-1.28c-1.21,1.2-3.15,1.81-5.81,1.81a8,8,0,0,1-4.8-1.47,4.51,4.51,0,0,1-2-3.83V139.92h9.38V171c0,1.16.55,1.75,1.64,1.75s1.62-.56,1.62-1.68V139.92h9.37Z"/><path class="cls-1" d="M364.39,162.76h9.37v8.09c0,1.29.53,1.94,1.58,1.94s1.58-1.24,1.58-3.72q0-4.83-1.94-6.25-7.34-3.84-8.85-5.38a6.27,6.27,0,0,1-1.51-4.59v-5.13q0-8.06,10.92-8.06,10.62,0,10.63,7.73v7.54H377l.2-4.58c0-3.18-.59-4.77-1.75-4.77s-1.74,1-1.74,3a11.08,11.08,0,0,0,.77,4.67c.52,1.05,3.38,2.86,8.61,5.43a7.26,7.26,0,0,1,3.25,6.18v5.73q0,8.06-11.1,8.06-10.87,0-10.87-7.73Z"/><path class="cls-2" d="M151.92,192.43l.12-.31c0-.1.09-.2.14-.3l2.65-4.81a.3.3,0,0,1,.16-.17.78.78,0,0,1,.24,0h.85v8h-1v-6c0-.09,0-.19,0-.28l-2.68,4.9a.42.42,0,0,1-.41.26h-.16a.43.43,0,0,1-.42-.26l-2.74-4.92,0,.29c0,.1,0,.19,0,.27v5.74h-1v-8h.85a.78.78,0,0,1,.24,0,.3.3,0,0,1,.16.17l2.69,4.82C151.75,192,151.83,192.22,151.92,192.43Z"/><path class="cls-2" d="M160,189.06a2.62,2.62,0,0,1,.94.17,2.12,2.12,0,0,1,.75.49,2.22,2.22,0,0,1,.5.79,3.06,3.06,0,0,1,.18,1.08.64.64,0,0,1-.06.33.21.21,0,0,1-.19.08h-3.73a2.91,2.91,0,0,0,.15.9,1.71,1.71,0,0,0,.35.64,1.43,1.43,0,0,0,.55.38,1.94,1.94,0,0,0,.7.12,2.25,2.25,0,0,0,.63-.08,4.45,4.45,0,0,0,.46-.18,2.7,2.7,0,0,0,.32-.19.52.52,0,0,1,.24-.08.2.2,0,0,1,.19.1l.3.38a1.9,1.9,0,0,1-.45.4,2.56,2.56,0,0,1-.55.27,3,3,0,0,1-.61.16,4.32,4.32,0,0,1-.62.05,2.92,2.92,0,0,1-1.08-.2,2.3,2.3,0,0,1-.86-.58,2.5,2.5,0,0,1-.56-.94,3.73,3.73,0,0,1-.21-1.3,3.3,3.3,0,0,1,.19-1.1,2.66,2.66,0,0,1,.52-.88,2.41,2.41,0,0,1,.84-.59A2.65,2.65,0,0,1,160,189.06Zm0,.77a1.47,1.47,0,0,0-1.09.41,1.94,1.94,0,0,0-.5,1.11h3a2,2,0,0,0-.09-.61,1.41,1.41,0,0,0-.28-.48,1.25,1.25,0,0,0-.44-.31A1.4,1.4,0,0,0,160,189.83Z"/><path class="cls-2" d="M165.25,194.88a1.35,1.35,0,0,1-1-.38,1.47,1.47,0,0,1-.37-1.09V190h-.66A.23.23,0,0,1,163,190a.22.22,0,0,1-.06-.17v-.42l.92-.12.24-1.71a.22.22,0,0,1,.08-.14.23.23,0,0,1,.16-.06h.54v1.91h1.6V190h-1.6v3.33a.69.69,0,0,0,.16.51.58.58,0,0,0,.43.17.68.68,0,0,0,.26,0,.48.48,0,0,0,.19-.09l.14-.09a.26.26,0,0,1,.1,0,.1.1,0,0,1,.08,0l.07.07.31.51a2,2,0,0,1-.63.38A2.21,2.21,0,0,1,165.25,194.88Z"/><path class="cls-2" d="M171.12,194.79a.39.39,0,0,1-.24,0,.36.36,0,0,1-.14-.19l-.11-.51c-.15.14-.29.25-.43.36a2.89,2.89,0,0,1-.44.27,2.66,2.66,0,0,1-.5.16,3.39,3.39,0,0,1-.58,0,2.06,2.06,0,0,1-.62-.09,1.34,1.34,0,0,1-.51-.28,1.5,1.5,0,0,1-.34-.47,1.69,1.69,0,0,1-.12-.66,1.21,1.21,0,0,1,.18-.64,1.58,1.58,0,0,1,.59-.55,3.75,3.75,0,0,1,1.07-.4,8.67,8.67,0,0,1,1.62-.18v-.42a1.44,1.44,0,0,0-.28-1,1,1,0,0,0-.81-.32,1.72,1.72,0,0,0-.6.09,2.75,2.75,0,0,0-.42.2l-.31.2a.43.43,0,0,1-.26.09.29.29,0,0,1-.19-.06.86.86,0,0,1-.13-.14l-.19-.34a3.39,3.39,0,0,1,1-.67,3.18,3.18,0,0,1,1.21-.22,2.26,2.26,0,0,1,.85.15,1.79,1.79,0,0,1,.63.44,1.88,1.88,0,0,1,.38.68,2.65,2.65,0,0,1,.13.87v3.6Zm-2.12-.65a1.94,1.94,0,0,0,.86-.19,2.12,2.12,0,0,0,.35-.23,3.28,3.28,0,0,0,.34-.31v-1.14a8.31,8.31,0,0,0-1.14.11,3,3,0,0,0-.76.22.94.94,0,0,0-.42.32.66.66,0,0,0-.13.4.89.89,0,0,0,.07.38.6.6,0,0,0,.19.25.67.67,0,0,0,.28.14A1,1,0,0,0,169,194.14Z"/><path class="cls-2" d="M177.13,194.79a.25.25,0,0,1-.27-.21l-.1-.66a3.52,3.52,0,0,1-.38.39,2.45,2.45,0,0,1-.44.3,1.78,1.78,0,0,1-.5.19,2.19,2.19,0,0,1-1.44-.12,1.75,1.75,0,0,1-.67-.55,2.51,2.51,0,0,1-.43-.9,4.63,4.63,0,0,1-.15-1.24,4,4,0,0,1,.17-1.17,2.93,2.93,0,0,1,.48-.93,2.32,2.32,0,0,1,.77-.62,2.25,2.25,0,0,1,1-.22,1.93,1.93,0,0,1,.87.17,2,2,0,0,1,.65.47v-3.1h1.06v8.2Zm-1.9-.77a1.56,1.56,0,0,0,.82-.21,2.51,2.51,0,0,0,.66-.61v-2.7a1.54,1.54,0,0,0-.58-.49,1.62,1.62,0,0,0-.7-.14,1.4,1.4,0,0,0-1.18.54,2.61,2.61,0,0,0-.41,1.58,3.5,3.5,0,0,0,.1.92,1.67,1.67,0,0,0,.27.63,1.08,1.08,0,0,0,.43.37A1.55,1.55,0,0,0,175.23,194Z"/><path class="cls-2" d="M182.91,194.79a.43.43,0,0,1-.24,0,.35.35,0,0,1-.13-.19l-.12-.51a3.57,3.57,0,0,1-.43.36,2.47,2.47,0,0,1-.44.27,2.56,2.56,0,0,1-.49.16,3.39,3.39,0,0,1-.58,0,2.13,2.13,0,0,1-.63-.09,1.3,1.3,0,0,1-.5-.28A1.35,1.35,0,0,1,179,194a1.69,1.69,0,0,1-.12-.66,1.21,1.21,0,0,1,.18-.64,1.51,1.51,0,0,1,.59-.55,3.68,3.68,0,0,1,1.06-.4,8.69,8.69,0,0,1,1.63-.18v-.42a1.5,1.5,0,0,0-.28-1,1,1,0,0,0-.81-.32,1.72,1.72,0,0,0-.6.09,2.75,2.75,0,0,0-.42.2l-.31.2a.48.48,0,0,1-.27.09.28.28,0,0,1-.18-.06.57.57,0,0,1-.13-.14l-.19-.34a3.07,3.07,0,0,1,2.23-.89,2.26,2.26,0,0,1,.85.15,1.79,1.79,0,0,1,.63.44,2,2,0,0,1,.38.68,2.65,2.65,0,0,1,.13.87v3.6Zm-2.12-.65a1.78,1.78,0,0,0,.47,0,1.9,1.9,0,0,0,.4-.14,2.64,2.64,0,0,0,.35-.23c.11-.09.22-.2.34-.31v-1.14a8.15,8.15,0,0,0-1.14.11,3,3,0,0,0-.76.22.89.89,0,0,0-.42.32.67.67,0,0,0-.14.4,1.07,1.07,0,0,0,.07.38.69.69,0,0,0,.19.25.78.78,0,0,0,.29.14A1,1,0,0,0,180.79,194.14Z"/><path class="cls-2" d="M186.54,194.88a1.38,1.38,0,0,1-1-.38,1.51,1.51,0,0,1-.36-1.09V190h-.67a.2.2,0,0,1-.15-.06.22.22,0,0,1-.06-.17v-.42l.92-.12.23-1.71a.28.28,0,0,1,.09-.14.21.21,0,0,1,.16-.06h.53v1.91h1.61V190h-1.61v3.33a.7.7,0,0,0,.17.51.58.58,0,0,0,.43.17.68.68,0,0,0,.26,0,.56.56,0,0,0,.19-.09l.13-.09a.3.3,0,0,1,.11,0,.11.11,0,0,1,.08,0,.22.22,0,0,1,.06.07l.31.51a1.8,1.8,0,0,1-.63.38A2.11,2.11,0,0,1,186.54,194.88Z"/><path class="cls-2" d="M192.4,194.79a.43.43,0,0,1-.24,0,.35.35,0,0,1-.13-.19l-.12-.51a4.56,4.56,0,0,1-.43.36,2.47,2.47,0,0,1-.44.27,2.56,2.56,0,0,1-.49.16,3.51,3.51,0,0,1-.59,0,2.06,2.06,0,0,1-.62-.09,1.3,1.3,0,0,1-.5-.28,1.35,1.35,0,0,1-.34-.47,1.69,1.69,0,0,1-.13-.66,1.14,1.14,0,0,1,.19-.64,1.55,1.55,0,0,1,.58-.55,3.87,3.87,0,0,1,1.07-.4,8.67,8.67,0,0,1,1.62-.18v-.42a1.5,1.5,0,0,0-.27-1,1,1,0,0,0-.81-.32,1.72,1.72,0,0,0-.6.09,2.36,2.36,0,0,0-.42.2l-.31.2a.48.48,0,0,1-.27.09.28.28,0,0,1-.18-.06.57.57,0,0,1-.13-.14l-.19-.34a3.07,3.07,0,0,1,2.23-.89,2.26,2.26,0,0,1,.85.15,1.66,1.66,0,0,1,.62.44,1.89,1.89,0,0,1,.39.68,2.94,2.94,0,0,1,.13.87v3.6Zm-2.12-.65a1.78,1.78,0,0,0,.47,0,1.9,1.9,0,0,0,.4-.14,2.64,2.64,0,0,0,.35-.23c.11-.09.22-.2.33-.31v-1.14a8.15,8.15,0,0,0-1.13.11,2.89,2.89,0,0,0-.76.22,1,1,0,0,0-.43.32.73.73,0,0,0-.13.4.89.89,0,0,0,.07.38.69.69,0,0,0,.19.25.71.71,0,0,0,.29.14A1,1,0,0,0,190.28,194.14Z"/><path class="cls-2" d="M194.26,191H197v.9h-2.77Z"/><path class="cls-2" d="M198.48,194.79v-8.2h1.06v3.35a2.72,2.72,0,0,1,.8-.64,2.08,2.08,0,0,1,1-.24,2,2,0,0,1,.89.19,1.87,1.87,0,0,1,.67.55,2.53,2.53,0,0,1,.43.87,4.11,4.11,0,0,1,.15,1.15,4.44,4.44,0,0,1-.17,1.25,3.1,3.1,0,0,1-.49,1,2.17,2.17,0,0,1-.76.62,2.21,2.21,0,0,1-1,.22,1.88,1.88,0,0,1-.93-.21,2.23,2.23,0,0,1-.66-.57l0,.48a.25.25,0,0,1-.27.22ZM201,189.9a1.59,1.59,0,0,0-.82.21,2.61,2.61,0,0,0-.64.61v2.7a1.47,1.47,0,0,0,.58.49,1.58,1.58,0,0,0,.69.14,1.41,1.41,0,0,0,1.19-.54,2.77,2.77,0,0,0,.41-1.65,2.42,2.42,0,0,0-.37-1.49A1.24,1.24,0,0,0,201,189.9Z"/><path class="cls-2" d="M208.34,194.79a.39.39,0,0,1-.24,0,.36.36,0,0,1-.14-.19l-.11-.51c-.15.14-.29.25-.43.36a2.89,2.89,0,0,1-.44.27,2.66,2.66,0,0,1-.5.16,3.39,3.39,0,0,1-.58,0,2.06,2.06,0,0,1-.62-.09,1.34,1.34,0,0,1-.51-.28,1.5,1.5,0,0,1-.34-.47,1.69,1.69,0,0,1-.12-.66,1.21,1.21,0,0,1,.18-.64,1.58,1.58,0,0,1,.59-.55,3.75,3.75,0,0,1,1.07-.4,8.67,8.67,0,0,1,1.62-.18v-.42a1.44,1.44,0,0,0-.28-1,1,1,0,0,0-.81-.32,1.72,1.72,0,0,0-.6.09,2.75,2.75,0,0,0-.42.2l-.31.2a.43.43,0,0,1-.26.09.29.29,0,0,1-.19-.06.86.86,0,0,1-.13-.14l-.19-.34a3.39,3.39,0,0,1,1-.67,3.18,3.18,0,0,1,1.21-.22,2.26,2.26,0,0,1,.85.15,1.79,1.79,0,0,1,.63.44,1.74,1.74,0,0,1,.38.68,2.65,2.65,0,0,1,.13.87v3.6Zm-2.12-.65a1.94,1.94,0,0,0,.86-.19,2.12,2.12,0,0,0,.35-.23,3.28,3.28,0,0,0,.34-.31v-1.14a8.31,8.31,0,0,0-1.14.11,3,3,0,0,0-.76.22.94.94,0,0,0-.42.32.66.66,0,0,0-.13.4.89.89,0,0,0,.07.38.6.6,0,0,0,.19.25.67.67,0,0,0,.28.14A1,1,0,0,0,206.22,194.14Z"/><path class="cls-2" d="M213.59,190.1a.24.24,0,0,1-.21.14.41.41,0,0,1-.2-.06l-.26-.14a3.42,3.42,0,0,0-.36-.14,1.77,1.77,0,0,0-.49-.06,1.51,1.51,0,0,0-.44.06,1.28,1.28,0,0,0-.33.17.72.72,0,0,0-.21.25.64.64,0,0,0-.07.31.51.51,0,0,0,.12.35.91.91,0,0,0,.33.24,4,4,0,0,0,.46.19l.54.17.53.2a2.16,2.16,0,0,1,.47.28,1.3,1.3,0,0,1,.32.41,1.18,1.18,0,0,1,.13.58,1.9,1.9,0,0,1-.14.73,1.73,1.73,0,0,1-.42.58,2,2,0,0,1-.67.38,2.67,2.67,0,0,1-.93.14,2.83,2.83,0,0,1-1.07-.19,2.64,2.64,0,0,1-.82-.5l.24-.4a.43.43,0,0,1,.11-.12.31.31,0,0,1,.17,0,.42.42,0,0,1,.22.08l.26.17a2.4,2.4,0,0,0,.39.17,1.79,1.79,0,0,0,.56.08,1.44,1.44,0,0,0,.49-.08,1.17,1.17,0,0,0,.35-.19.69.69,0,0,0,.2-.28.8.8,0,0,0,.07-.34.55.55,0,0,0-.13-.38,1,1,0,0,0-.32-.25,3.53,3.53,0,0,0-.47-.19l-.53-.16a4.33,4.33,0,0,1-.54-.21,1.61,1.61,0,0,1-.47-.29,1.38,1.38,0,0,1-.32-.43,1.29,1.29,0,0,1-.13-.62,1.69,1.69,0,0,1,.13-.63,1.55,1.55,0,0,1,.4-.53,1.93,1.93,0,0,1,.63-.36,2.61,2.61,0,0,1,.87-.13,3,3,0,0,1,1,.17,2.36,2.36,0,0,1,.77.49Z"/><path class="cls-2" d="M217.44,189.06a2.62,2.62,0,0,1,.94.17,2.12,2.12,0,0,1,.75.49,2.37,2.37,0,0,1,.5.79,3.06,3.06,0,0,1,.17,1.08.66.66,0,0,1-.05.33.22.22,0,0,1-.2.08h-3.72a2.91,2.91,0,0,0,.15.9,1.71,1.71,0,0,0,.35.64,1.47,1.47,0,0,0,.54.38,2,2,0,0,0,.71.12,2.35,2.35,0,0,0,.63-.08,4.45,4.45,0,0,0,.46-.18l.32-.19a.52.52,0,0,1,.24-.08.21.21,0,0,1,.19.1l.3.38a1.9,1.9,0,0,1-.45.4,2.56,2.56,0,0,1-.55.27,3.22,3.22,0,0,1-.61.16,4.44,4.44,0,0,1-.62.05,2.92,2.92,0,0,1-1.08-.2,2.3,2.3,0,0,1-.86-.58,2.66,2.66,0,0,1-.57-.94,4,4,0,0,1-.2-1.3,3.07,3.07,0,0,1,.19-1.1,2.5,2.5,0,0,1,.52-.88,2.41,2.41,0,0,1,.84-.59A2.59,2.59,0,0,1,217.44,189.06Zm0,.77a1.46,1.46,0,0,0-1.09.41,1.88,1.88,0,0,0-.5,1.11h3a1.7,1.7,0,0,0-.1-.61,1.23,1.23,0,0,0-.71-.79A1.46,1.46,0,0,0,217.45,189.83Z"/><path class="cls-2" d="M225.07,194.79a.26.26,0,0,1-.28-.21l-.1-.66a2.81,2.81,0,0,1-.38.39,2.14,2.14,0,0,1-.44.3,1.84,1.84,0,0,1-.49.19,2.12,2.12,0,0,1-.57.07,1.92,1.92,0,0,1-.87-.19,1.78,1.78,0,0,1-.68-.55,2.69,2.69,0,0,1-.43-.9,4.63,4.63,0,0,1-.15-1.24,4,4,0,0,1,.17-1.17,2.93,2.93,0,0,1,.48-.93,2.32,2.32,0,0,1,.77-.62,2.25,2.25,0,0,1,1-.22,2,2,0,0,1,.88.17,2.08,2.08,0,0,1,.64.47v-3.1h1.06v8.2Zm-1.91-.77a1.63,1.63,0,0,0,.83-.21,2.64,2.64,0,0,0,.65-.61v-2.7a1.54,1.54,0,0,0-.58-.49,1.62,1.62,0,0,0-.7-.14,1.4,1.4,0,0,0-1.18.54,2.61,2.61,0,0,0-.41,1.58,3.5,3.5,0,0,0,.1.92,1.67,1.67,0,0,0,.27.63,1.08,1.08,0,0,0,.43.37A1.55,1.55,0,0,0,223.16,194Z"/><path class="cls-2" d="M231.37,187.4a.67.67,0,0,1-.06.28.87.87,0,0,1-.16.23,1,1,0,0,1-.24.16.93.93,0,0,1-.29.05.81.81,0,0,1-.27-.05.79.79,0,0,1-.23-.16.87.87,0,0,1-.16-.23.67.67,0,0,1-.06-.28.72.72,0,0,1,.06-.29.78.78,0,0,1,.16-.24.79.79,0,0,1,.23-.16.81.81,0,0,1,.27-.05.93.93,0,0,1,.29.05,1,1,0,0,1,.24.16.78.78,0,0,1,.16.24A.72.72,0,0,1,231.37,187.4Zm-.21,1.75v5.64H230.1v-5.64Z"/><path class="cls-2" d="M232.75,194.79v-5.64h.63a.26.26,0,0,1,.28.21l.08.58a3.31,3.31,0,0,1,.81-.64,2.19,2.19,0,0,1,1-.24,2.1,2.1,0,0,1,.82.15,1.72,1.72,0,0,1,.59.44,1.88,1.88,0,0,1,.36.67,3,3,0,0,1,.13.87v3.6h-1.06v-3.6a1.51,1.51,0,0,0-.28-.95,1.06,1.06,0,0,0-.87-.34,1.55,1.55,0,0,0-.79.2,2.53,2.53,0,0,0-.69.55v4.14Z"/><path class="cls-2" d="M240.64,194.88a1.35,1.35,0,0,1-1-.38,1.47,1.47,0,0,1-.37-1.09V190h-.66a.25.25,0,0,1-.16-.06.22.22,0,0,1-.06-.17v-.42l.92-.12.24-1.71a.22.22,0,0,1,.08-.14.23.23,0,0,1,.16-.06h.54v1.91h1.61V190h-1.61v3.33a.69.69,0,0,0,.16.51.6.6,0,0,0,.43.17.68.68,0,0,0,.26,0,.48.48,0,0,0,.19-.09l.14-.09a.26.26,0,0,1,.1,0,.1.1,0,0,1,.08,0l.07.07.31.51a2,2,0,0,1-.63.38A2.17,2.17,0,0,1,240.64,194.88Z"/><path class="cls-2" d="M245.23,189.06a2.62,2.62,0,0,1,.94.17,2.12,2.12,0,0,1,.75.49,2.22,2.22,0,0,1,.5.79,3.06,3.06,0,0,1,.18,1.08.64.64,0,0,1-.06.33.21.21,0,0,1-.19.08h-3.73a2.91,2.91,0,0,0,.15.9,1.71,1.71,0,0,0,.35.64,1.51,1.51,0,0,0,.55.38,1.94,1.94,0,0,0,.7.12A2.25,2.25,0,0,0,246,194a4.45,4.45,0,0,0,.46-.18l.33-.19a.46.46,0,0,1,.23-.08.2.2,0,0,1,.19.1l.3.38a1.9,1.9,0,0,1-.45.4,2.56,2.56,0,0,1-.55.27,3,3,0,0,1-.61.16,4.32,4.32,0,0,1-.62.05,2.92,2.92,0,0,1-1.08-.2,2.3,2.3,0,0,1-.86-.58,2.5,2.5,0,0,1-.56-.94,3.74,3.74,0,0,1-.2-1.3,3.3,3.3,0,0,1,.18-1.1,2.66,2.66,0,0,1,.52-.88,2.41,2.41,0,0,1,.84-.59A2.65,2.65,0,0,1,245.23,189.06Zm0,.77a1.47,1.47,0,0,0-1.09.41,1.94,1.94,0,0,0-.5,1.11h3a2,2,0,0,0-.09-.61,1.41,1.41,0,0,0-.28-.48,1.25,1.25,0,0,0-.44-.31A1.4,1.4,0,0,0,245.24,189.83Z"/><path class="cls-2" d="M250.76,189.05a2.88,2.88,0,0,1,.68.08,2.51,2.51,0,0,1,.58.23h1.56v.39c0,.14-.08.22-.24.25l-.62.09a1.85,1.85,0,0,1,.17.78,1.72,1.72,0,0,1-.6,1.33,1.88,1.88,0,0,1-.67.36,2.67,2.67,0,0,1-.86.13,3.24,3.24,0,0,1-.72-.08c-.24.14-.35.29-.35.46a.33.33,0,0,0,.16.3,1.36,1.36,0,0,0,.43.14,3.67,3.67,0,0,0,.61.05l.69,0c.24,0,.47.05.7.09a1.9,1.9,0,0,1,.61.2,1.15,1.15,0,0,1,.43.39,1.1,1.1,0,0,1,.16.64,1.46,1.46,0,0,1-.18.7,1.86,1.86,0,0,1-.52.61,2.77,2.77,0,0,1-.84.43,3.83,3.83,0,0,1-1.12.16,4.29,4.29,0,0,1-1.08-.12,3.15,3.15,0,0,1-.78-.33,1.49,1.49,0,0,1-.46-.48,1.15,1.15,0,0,1-.15-.56,1,1,0,0,1,.26-.71,1.57,1.57,0,0,1,.71-.44,1.05,1.05,0,0,1-.4-.31.79.79,0,0,1-.14-.51.77.77,0,0,1,0-.25,1.1,1.1,0,0,1,.14-.26,1.27,1.27,0,0,1,.22-.25,1.73,1.73,0,0,1,.32-.2,1.88,1.88,0,0,1-.66-.62,1.69,1.69,0,0,1-.24-.91,1.8,1.8,0,0,1,.16-.75,1.78,1.78,0,0,1,.45-.57,2.12,2.12,0,0,1,.68-.37A3,3,0,0,1,250.76,189.05Zm1.75,6a.42.42,0,0,0-.12-.32.72.72,0,0,0-.3-.2,2,2,0,0,0-.46-.1l-.54,0-.58,0-.57,0a1.5,1.5,0,0,0-.49.35.76.76,0,0,0-.19.5.7.7,0,0,0,.1.34.69.69,0,0,0,.29.27,1.4,1.4,0,0,0,.49.18,2.85,2.85,0,0,0,.7.07,3,3,0,0,0,.71-.07,2,2,0,0,0,.52-.2,1.1,1.1,0,0,0,.33-.31A.7.7,0,0,0,252.51,195.09ZM250.76,192a1.62,1.62,0,0,0,.52-.08,1.06,1.06,0,0,0,.37-.23.93.93,0,0,0,.23-.35,1.23,1.23,0,0,0,.07-.44,1.09,1.09,0,0,0-.3-.8,1.21,1.21,0,0,0-.89-.3,1.23,1.23,0,0,0-.89.3,1.09,1.09,0,0,0-.3.8,1.23,1.23,0,0,0,.08.44,1,1,0,0,0,.23.35,1.06,1.06,0,0,0,.37.23A1.6,1.6,0,0,0,250.76,192Z"/><path class="cls-2" d="M254.58,194.79v-5.64h.61a.38.38,0,0,1,.24.06.35.35,0,0,1,.08.22l.07.82a2.64,2.64,0,0,1,.66-.88,1.42,1.42,0,0,1,.93-.32,1.34,1.34,0,0,1,.35,0,.65.65,0,0,1,.28.12l-.07.79a.17.17,0,0,1-.18.15l-.23,0a1.15,1.15,0,0,0-.33,0,1.36,1.36,0,0,0-.47.08,1.05,1.05,0,0,0-.36.23,1.48,1.48,0,0,0-.29.36,3.91,3.91,0,0,0-.23.5v3.54Z"/><path class="cls-2" d="M262.17,194.79a.43.43,0,0,1-.24,0,.31.31,0,0,1-.13-.19l-.12-.51a4.56,4.56,0,0,1-.43.36,2.89,2.89,0,0,1-.44.27,2.56,2.56,0,0,1-.49.16,3.51,3.51,0,0,1-.59,0,2.06,2.06,0,0,1-.62-.09,1.3,1.3,0,0,1-.5-.28,1.24,1.24,0,0,1-.34-.47,1.53,1.53,0,0,1-.13-.66,1.21,1.21,0,0,1,.18-.64,1.58,1.58,0,0,1,.59-.55,3.87,3.87,0,0,1,1.07-.4,8.67,8.67,0,0,1,1.62-.18v-.42a1.5,1.5,0,0,0-.27-1,1,1,0,0,0-.81-.32,1.82,1.82,0,0,0-.61.09,2.24,2.24,0,0,0-.41.2l-.31.2a.48.48,0,0,1-.27.09.33.33,0,0,1-.19-.06.86.86,0,0,1-.13-.14l-.18-.34a3.16,3.16,0,0,1,1-.67,3.11,3.11,0,0,1,1.21-.22,2.3,2.3,0,0,1,.85.15,1.84,1.84,0,0,1,.62.44,1.89,1.89,0,0,1,.39.68,2.94,2.94,0,0,1,.13.87v3.6Zm-2.12-.65a1.66,1.66,0,0,0,.46,0,1.8,1.8,0,0,0,.41-.14,2.64,2.64,0,0,0,.35-.23c.11-.09.22-.2.33-.31v-1.14a8.15,8.15,0,0,0-1.13.11,2.89,2.89,0,0,0-.76.22.92.92,0,0,0-.43.32.66.66,0,0,0-.13.4.89.89,0,0,0,.07.38.6.6,0,0,0,.19.25.71.71,0,0,0,.29.14A1,1,0,0,0,260.05,194.14Z"/><path class="cls-2" d="M265.8,194.88a1.37,1.37,0,0,1-1.05-.38,1.47,1.47,0,0,1-.37-1.09V190h-.66a.2.2,0,0,1-.15-.06.19.19,0,0,1-.07-.17v-.42l.92-.12.24-1.71a.27.27,0,0,1,.08-.14.25.25,0,0,1,.17-.06h.53v1.91h1.61V190h-1.61v3.33a.69.69,0,0,0,.16.51.6.6,0,0,0,.44.17.75.75,0,0,0,.26,0,.66.66,0,0,0,.19-.09l.13-.09a.26.26,0,0,1,.1,0s.07,0,.08,0a.16.16,0,0,1,.07.07l.31.51a2,2,0,0,1-.63.38A2.15,2.15,0,0,1,265.8,194.88Z"/><path class="cls-2" d="M270.38,189.06a2.62,2.62,0,0,1,.94.17,2.12,2.12,0,0,1,.75.49,2.22,2.22,0,0,1,.5.79,3.06,3.06,0,0,1,.18,1.08.8.8,0,0,1-.05.33.25.25,0,0,1-.2.08h-3.73a2.91,2.91,0,0,0,.15.9,1.71,1.71,0,0,0,.35.64,1.51,1.51,0,0,0,.55.38,1.94,1.94,0,0,0,.7.12,2.25,2.25,0,0,0,.63-.08,4.45,4.45,0,0,0,.46-.18l.33-.19a.46.46,0,0,1,.23-.08.2.2,0,0,1,.19.1l.3.38a1.9,1.9,0,0,1-.45.4,2.56,2.56,0,0,1-.55.27,3,3,0,0,1-.61.16,4.32,4.32,0,0,1-.62.05,2.92,2.92,0,0,1-1.08-.2,2.3,2.3,0,0,1-.86-.58,2.5,2.5,0,0,1-.56-.94,3.74,3.74,0,0,1-.2-1.3,3.3,3.3,0,0,1,.18-1.1,2.66,2.66,0,0,1,.52-.88,2.41,2.41,0,0,1,.84-.59A2.65,2.65,0,0,1,270.38,189.06Zm0,.77a1.47,1.47,0,0,0-1.09.41,1.94,1.94,0,0,0-.5,1.11h3a2,2,0,0,0-.09-.61,1.41,1.41,0,0,0-.28-.48A1.25,1.25,0,0,0,271,190,1.4,1.4,0,0,0,270.39,189.83Z"/><path class="cls-2" d="M278,194.79a.26.26,0,0,1-.28-.21l-.09-.66a2.87,2.87,0,0,1-.39.39,1.9,1.9,0,0,1-.44.3,1.72,1.72,0,0,1-.49.19,2,2,0,0,1-.56.07,1.93,1.93,0,0,1-.88-.19,1.75,1.75,0,0,1-.67-.55,2.51,2.51,0,0,1-.43-.9,4.63,4.63,0,0,1-.15-1.24,4,4,0,0,1,.16-1.17,3,3,0,0,1,.49-.93,2.39,2.39,0,0,1,.76-.62,2.28,2.28,0,0,1,1-.22,2,2,0,0,1,.88.17,2.12,2.12,0,0,1,.65.47v-3.1h1.05v8.2ZM276.1,194a1.6,1.6,0,0,0,.83-.21,2.51,2.51,0,0,0,.66-.61v-2.7A1.56,1.56,0,0,0,277,190a1.59,1.59,0,0,0-.7-.14,1.37,1.37,0,0,0-1.17.54,2.54,2.54,0,0,0-.41,1.58,4,4,0,0,0,.09.92,1.67,1.67,0,0,0,.27.63,1.11,1.11,0,0,0,.44.37A1.5,1.5,0,0,0,276.1,194Z"/><path class="cls-2" d="M285.33,189.06a2.62,2.62,0,0,1,.94.17,2.12,2.12,0,0,1,.75.49,2.22,2.22,0,0,1,.5.79,3.06,3.06,0,0,1,.18,1.08.8.8,0,0,1-.05.33.25.25,0,0,1-.2.08h-3.73a2.91,2.91,0,0,0,.15.9,1.86,1.86,0,0,0,.35.64,1.6,1.6,0,0,0,.55.38,1.94,1.94,0,0,0,.7.12,2.25,2.25,0,0,0,.63-.08,4.45,4.45,0,0,0,.46-.18l.33-.19a.46.46,0,0,1,.23-.08.2.2,0,0,1,.19.1l.3.38a1.9,1.9,0,0,1-.45.4,2.56,2.56,0,0,1-.55.27,3,3,0,0,1-.61.16,4.32,4.32,0,0,1-.62.05,3,3,0,0,1-1.08-.2,2.3,2.3,0,0,1-.86-.58,2.5,2.5,0,0,1-.56-.94,3.74,3.74,0,0,1-.2-1.3,3.3,3.3,0,0,1,.18-1.1,2.66,2.66,0,0,1,.52-.88,2.41,2.41,0,0,1,.84-.59A2.65,2.65,0,0,1,285.33,189.06Zm0,.77a1.47,1.47,0,0,0-1.09.41,1.94,1.94,0,0,0-.5,1.11h3a2,2,0,0,0-.09-.61,1.41,1.41,0,0,0-.28-.48,1.25,1.25,0,0,0-.44-.31A1.4,1.4,0,0,0,285.34,189.83Z"/><path class="cls-2" d="M293.06,188.1a.36.36,0,0,1-.11.13.33.33,0,0,1-.15,0,.42.42,0,0,1-.23-.09l-.32-.21a2.88,2.88,0,0,0-.46-.2,1.76,1.76,0,0,0-.64-.1,1.72,1.72,0,0,0-.62.1,1.22,1.22,0,0,0-.45.25,1,1,0,0,0-.28.38,1.24,1.24,0,0,0-.09.48.89.89,0,0,0,.17.54,1.4,1.4,0,0,0,.43.36,2.87,2.87,0,0,0,.61.26l.69.24c.24.08.47.17.7.27a2.27,2.27,0,0,1,.61.39,1.79,1.79,0,0,1,.43.58,1.93,1.93,0,0,1,.17.84,2.63,2.63,0,0,1-.18,1,2.33,2.33,0,0,1-.53.8,2.38,2.38,0,0,1-.85.54,2.9,2.9,0,0,1-1.14.2,3.64,3.64,0,0,1-.74-.07,3.83,3.83,0,0,1-.68-.21,4.36,4.36,0,0,1-.6-.33,3.43,3.43,0,0,1-.5-.43l.33-.55a.43.43,0,0,1,.12-.11.33.33,0,0,1,.15,0,.45.45,0,0,1,.27.12l.38.27a2.72,2.72,0,0,0,.54.27,2.29,2.29,0,0,0,1.43,0,1.43,1.43,0,0,0,.5-.29,1.14,1.14,0,0,0,.31-.44,1.58,1.58,0,0,0,.11-.58,1,1,0,0,0-.17-.58,1.32,1.32,0,0,0-.43-.38,3.27,3.27,0,0,0-.6-.25l-.7-.22c-.24-.08-.47-.17-.7-.27a2.27,2.27,0,0,1-.61-.39,1.92,1.92,0,0,1-.43-.6,2.16,2.16,0,0,1-.16-.9,2.1,2.1,0,0,1,.16-.82,2.31,2.31,0,0,1,.49-.71,2.36,2.36,0,0,1,.78-.49,3,3,0,0,1,1.07-.19,3.49,3.49,0,0,1,1.23.21,2.88,2.88,0,0,1,1,.62Z"/><path class="cls-2" d="M297,189.06a2.62,2.62,0,0,1,.94.17,2.12,2.12,0,0,1,.75.49,2.37,2.37,0,0,1,.5.79,3.06,3.06,0,0,1,.18,1.08.64.64,0,0,1-.06.33.21.21,0,0,1-.19.08h-3.73a2.91,2.91,0,0,0,.15.9,1.71,1.71,0,0,0,.35.64,1.47,1.47,0,0,0,.54.38,2,2,0,0,0,.71.12,2.25,2.25,0,0,0,.63-.08,4.45,4.45,0,0,0,.46-.18l.32-.19a.52.52,0,0,1,.24-.08.2.2,0,0,1,.19.1l.3.38a1.9,1.9,0,0,1-.45.4,2.56,2.56,0,0,1-.55.27,3,3,0,0,1-.61.16,4.32,4.32,0,0,1-.62.05,2.92,2.92,0,0,1-1.08-.2,2.3,2.3,0,0,1-.86-.58,2.5,2.5,0,0,1-.56-.94,3.73,3.73,0,0,1-.21-1.3,3.07,3.07,0,0,1,.19-1.1,2.5,2.5,0,0,1,.52-.88,2.41,2.41,0,0,1,.84-.59A2.62,2.62,0,0,1,297,189.06Zm0,.77a1.47,1.47,0,0,0-1.09.41,1.94,1.94,0,0,0-.5,1.11h3a2,2,0,0,0-.09-.61,1.41,1.41,0,0,0-.28-.48,1.25,1.25,0,0,0-.44-.31A1.43,1.43,0,0,0,297.05,189.83Z"/><path class="cls-2" d="M300.59,194.79v-5.64h.61a.33.33,0,0,1,.23.06.35.35,0,0,1,.09.22l.07.82a2.5,2.5,0,0,1,.65-.88,1.45,1.45,0,0,1,.94-.32,1.22,1.22,0,0,1,.34,0,.69.69,0,0,1,.29.12l-.07.79a.17.17,0,0,1-.18.15l-.23,0a1.18,1.18,0,0,0-.34,0,1.3,1.3,0,0,0-.46.08,1,1,0,0,0-.36.23,1.48,1.48,0,0,0-.29.36,2.9,2.9,0,0,0-.23.5v3.54Z"/><path class="cls-2" d="M307.25,194.79h-1L304,189.15h.87a.37.37,0,0,1,.21.06.25.25,0,0,1,.1.15l1.38,3.52c.05.14.09.28.13.42l.09.41c0-.13.06-.27.1-.41a4,4,0,0,1,.13-.42l1.4-3.52a.23.23,0,0,1,.11-.15.31.31,0,0,1,.19-.06h.83Z"/><path class="cls-2" d="M311.73,187.4a.67.67,0,0,1-.06.28.87.87,0,0,1-.16.23,1,1,0,0,1-.24.16.81.81,0,0,1-.56,0,.94.94,0,0,1-.23-.16.87.87,0,0,1-.16-.23.67.67,0,0,1-.06-.28.72.72,0,0,1,.06-.29.78.78,0,0,1,.16-.24.94.94,0,0,1,.23-.16.81.81,0,0,1,.56,0,1,1,0,0,1,.24.16.78.78,0,0,1,.16.24A.72.72,0,0,1,311.73,187.4Zm-.21,1.75v5.64h-1v-5.64Z"/><path class="cls-2" d="M317.06,190.19l-.09.09a.25.25,0,0,1-.13,0,.37.37,0,0,1-.19-.07l-.25-.15a1.27,1.27,0,0,0-.35-.15,1.6,1.6,0,0,0-.52-.07,1.65,1.65,0,0,0-.72.14,1.42,1.42,0,0,0-.52.42,1.87,1.87,0,0,0-.31.65,3.34,3.34,0,0,0-.11.87,3,3,0,0,0,.12.89,1.85,1.85,0,0,0,.32.66,1.32,1.32,0,0,0,.51.4,1.42,1.42,0,0,0,.66.14,1.84,1.84,0,0,0,.58-.08,1.68,1.68,0,0,0,.38-.19l.26-.19a.32.32,0,0,1,.2-.08.21.21,0,0,1,.2.1l.3.38a2,2,0,0,1-.43.4,3.15,3.15,0,0,1-.51.28,2.65,2.65,0,0,1-.57.15,4,4,0,0,1-.6.05,2.45,2.45,0,0,1-1-.19,2.26,2.26,0,0,1-.8-.57,2.57,2.57,0,0,1-.52-.92,3.86,3.86,0,0,1,0-2.39,2.84,2.84,0,0,1,.51-.92,2.31,2.31,0,0,1,.84-.6,3.08,3.08,0,0,1,2.21,0,2.59,2.59,0,0,1,.81.55Z"/><path class="cls-2" d="M320.66,189.06a2.62,2.62,0,0,1,.94.17,2.12,2.12,0,0,1,.75.49,2.22,2.22,0,0,1,.5.79,3.06,3.06,0,0,1,.18,1.08.64.64,0,0,1-.06.33.21.21,0,0,1-.19.08h-3.73a2.91,2.91,0,0,0,.15.9,1.71,1.71,0,0,0,.35.64,1.43,1.43,0,0,0,.55.38,1.94,1.94,0,0,0,.7.12,2.25,2.25,0,0,0,.63-.08,4.45,4.45,0,0,0,.46-.18,2.7,2.7,0,0,0,.32-.19.52.52,0,0,1,.24-.08.2.2,0,0,1,.19.1l.3.38a1.9,1.9,0,0,1-.45.4,2.56,2.56,0,0,1-.55.27,3,3,0,0,1-.61.16,4.32,4.32,0,0,1-.62.05,2.92,2.92,0,0,1-1.08-.2,2.3,2.3,0,0,1-.86-.58,2.5,2.5,0,0,1-.56-.94,3.73,3.73,0,0,1-.21-1.3,3.3,3.3,0,0,1,.19-1.1,2.66,2.66,0,0,1,.52-.88,2.41,2.41,0,0,1,.84-.59A2.65,2.65,0,0,1,320.66,189.06Zm0,.77a1.47,1.47,0,0,0-1.09.41,1.94,1.94,0,0,0-.5,1.11h3a2,2,0,0,0-.09-.61,1.41,1.41,0,0,0-.28-.48,1.25,1.25,0,0,0-.44-.31A1.43,1.43,0,0,0,320.67,189.83Z"/><path class="cls-2" d="M334.21,190.8a4.46,4.46,0,0,1-.29,1.63,3.6,3.6,0,0,1-.81,1.26,3.49,3.49,0,0,1-1.25.82,4.35,4.35,0,0,1-1.61.28h-3v-8h3a4.35,4.35,0,0,1,1.61.29,3.47,3.47,0,0,1,1.25.81,3.6,3.6,0,0,1,.81,1.26A4.5,4.5,0,0,1,334.21,190.8Zm-1.18,0a4,4,0,0,0-.19-1.29,2.67,2.67,0,0,0-.56-1,2.46,2.46,0,0,0-.88-.6,3,3,0,0,0-1.15-.21h-1.84v6.12h1.84a3.23,3.23,0,0,0,1.15-.2,2.36,2.36,0,0,0,.88-.61,2.67,2.67,0,0,0,.56-1A4,4,0,0,0,333,190.8Z"/><path class="cls-2" d="M337.74,189.06a2.63,2.63,0,0,1,.95.17,2.12,2.12,0,0,1,.75.49,2.37,2.37,0,0,1,.5.79,3.31,3.31,0,0,1,.17,1.08.66.66,0,0,1-.05.33.22.22,0,0,1-.2.08h-3.72a3.27,3.27,0,0,0,.14.9,1.88,1.88,0,0,0,.36.64,1.47,1.47,0,0,0,.54.38,2,2,0,0,0,.71.12,2.35,2.35,0,0,0,.63-.08,4.45,4.45,0,0,0,.46-.18l.32-.19a.52.52,0,0,1,.24-.08.21.21,0,0,1,.19.1l.3.38a1.9,1.9,0,0,1-.45.4,2.56,2.56,0,0,1-.55.27,3.22,3.22,0,0,1-.61.16,4.44,4.44,0,0,1-.62.05,2.92,2.92,0,0,1-1.08-.2,2.3,2.3,0,0,1-.86-.58,2.66,2.66,0,0,1-.57-.94,4,4,0,0,1-.2-1.3,3.07,3.07,0,0,1,.19-1.1,2.5,2.5,0,0,1,.52-.88,2.46,2.46,0,0,1,.83-.59A2.65,2.65,0,0,1,337.74,189.06Zm0,.77a1.46,1.46,0,0,0-1.09.41,1.88,1.88,0,0,0-.5,1.11h3a1.7,1.7,0,0,0-.1-.61,1.23,1.23,0,0,0-.71-.79A1.46,1.46,0,0,0,337.76,189.83Z"/><path class="cls-2" d="M342.38,186.59v8.2h-1.05v-8.2Z"/><path class="cls-2" d="M345.26,187.4a.67.67,0,0,1-.06.28.87.87,0,0,1-.16.23,1,1,0,0,1-.24.16.93.93,0,0,1-.29.05.81.81,0,0,1-.27-.05.79.79,0,0,1-.23-.16.87.87,0,0,1-.16-.23.67.67,0,0,1-.06-.28.72.72,0,0,1,.06-.29.78.78,0,0,1,.16-.24.79.79,0,0,1,.23-.16.81.81,0,0,1,.27-.05.93.93,0,0,1,.29.05,1,1,0,0,1,.24.16.78.78,0,0,1,.16.24A.72.72,0,0,1,345.26,187.4Zm-.21,1.75v5.64H344v-5.64Z"/><path class="cls-2" d="M349.23,194.79h-1L346,189.15h.87a.37.37,0,0,1,.21.06.33.33,0,0,1,.11.15l1.38,3.52.12.42.09.41c0-.13.06-.27.1-.41a4,4,0,0,1,.13-.42l1.4-3.52a.27.27,0,0,1,.11-.15.31.31,0,0,1,.19-.06h.83Z"/><path class="cls-2" d="M354.57,189.06a2.63,2.63,0,0,1,.95.17,2.12,2.12,0,0,1,.75.49,2.37,2.37,0,0,1,.5.79,3.31,3.31,0,0,1,.17,1.08.66.66,0,0,1-.05.33.22.22,0,0,1-.2.08H353a3.27,3.27,0,0,0,.14.9,1.88,1.88,0,0,0,.36.64,1.47,1.47,0,0,0,.54.38,2,2,0,0,0,.71.12,2.35,2.35,0,0,0,.63-.08,4.45,4.45,0,0,0,.46-.18l.32-.19a.52.52,0,0,1,.24-.08.21.21,0,0,1,.19.1l.3.38a1.9,1.9,0,0,1-.45.4,2.56,2.56,0,0,1-.55.27,3.22,3.22,0,0,1-.61.16,4.44,4.44,0,0,1-.62.05,2.92,2.92,0,0,1-1.08-.2,2.3,2.3,0,0,1-.86-.58,2.5,2.5,0,0,1-.56-.94,3.73,3.73,0,0,1-.21-1.3,3.07,3.07,0,0,1,.19-1.1,2.5,2.5,0,0,1,.52-.88,2.46,2.46,0,0,1,.83-.59A2.65,2.65,0,0,1,354.57,189.06Zm0,.77a1.46,1.46,0,0,0-1.09.41,1.88,1.88,0,0,0-.5,1.11h3a1.7,1.7,0,0,0-.1-.61,1.23,1.23,0,0,0-.71-.79A1.46,1.46,0,0,0,354.59,189.83Z"/><path class="cls-2" d="M358.13,194.79v-5.64h.6a.35.35,0,0,1,.24.06.41.41,0,0,1,.09.22l.06.82a2.64,2.64,0,0,1,.66-.88,1.44,1.44,0,0,1,.93-.32,1.29,1.29,0,0,1,.35,0,.69.69,0,0,1,.29.12l-.07.79a.18.18,0,0,1-.18.15l-.23,0a1.27,1.27,0,0,0-.34,0,1.3,1.3,0,0,0-.46.08,1.1,1.1,0,0,0-.37.23,1.45,1.45,0,0,0-.28.36,2.9,2.9,0,0,0-.24.5v3.54Z"/><path class="cls-2" d="M364,196.44a.53.53,0,0,1-.13.19.38.38,0,0,1-.24.06h-.78l1-2.24-2.32-5.3h.91a.38.38,0,0,1,.22.06.31.31,0,0,1,.1.15l1.46,3.45a3.6,3.6,0,0,1,.16.5c0-.08.05-.17.08-.26l.09-.25,1.41-3.44a.44.44,0,0,1,.12-.15.33.33,0,0,1,.19-.06h.84Z"/><path class="cls-2" d="M375.67,186.81v.94h-3.79v2.71h3.23v.93h-3.23v3.4h-1.15v-8Z"/><path class="cls-2" d="M376.31,194.79v-5.64h.61a.33.33,0,0,1,.23.06.41.41,0,0,1,.09.22l.06.82a2.64,2.64,0,0,1,.66-.88,1.45,1.45,0,0,1,.94-.32,1.27,1.27,0,0,1,.34,0,.69.69,0,0,1,.29.12l-.07.79a.17.17,0,0,1-.18.15l-.23,0a1.18,1.18,0,0,0-.34,0,1.3,1.3,0,0,0-.46.08,1.1,1.1,0,0,0-.37.23,1.72,1.72,0,0,0-.28.36,2.9,2.9,0,0,0-.23.5v3.54Z"/><path class="cls-2" d="M383.9,194.79a.39.39,0,0,1-.24,0,.36.36,0,0,1-.14-.19l-.11-.51c-.15.14-.29.25-.43.36a2.89,2.89,0,0,1-.44.27,2.66,2.66,0,0,1-.5.16,3.3,3.3,0,0,1-.58,0,2.06,2.06,0,0,1-.62-.09A1.28,1.28,0,0,1,380,194a1.53,1.53,0,0,1-.13-.66,1.21,1.21,0,0,1,.18-.64,1.58,1.58,0,0,1,.59-.55,3.75,3.75,0,0,1,1.07-.4,8.67,8.67,0,0,1,1.62-.18v-.42a1.44,1.44,0,0,0-.28-1,1,1,0,0,0-.8-.32,1.75,1.75,0,0,0-.61.09,2.75,2.75,0,0,0-.42.2l-.3.2a.48.48,0,0,1-.27.09.29.29,0,0,1-.19-.06.86.86,0,0,1-.13-.14l-.19-.34a3.39,3.39,0,0,1,1-.67,3.18,3.18,0,0,1,1.21-.22,2.22,2.22,0,0,1,.85.15,1.79,1.79,0,0,1,.63.44,1.74,1.74,0,0,1,.38.68,2.65,2.65,0,0,1,.13.87v3.6Zm-2.12-.65a1.94,1.94,0,0,0,.86-.19,2.74,2.74,0,0,0,.36-.23c.11-.09.22-.2.33-.31v-1.14a8,8,0,0,0-1.13.11,2.78,2.78,0,0,0-.76.22.92.92,0,0,0-.43.32.66.66,0,0,0-.13.4.89.89,0,0,0,.07.38.6.6,0,0,0,.19.25.74.74,0,0,0,.28.14A1,1,0,0,0,381.78,194.14Z"/><path class="cls-2" d="M385.84,194.79v-5.64h.63a.26.26,0,0,1,.28.21l.07.55a2.87,2.87,0,0,1,.7-.61,1.62,1.62,0,0,1,.89-.24,1.31,1.31,0,0,1,.92.31,1.78,1.78,0,0,1,.51.83,1.62,1.62,0,0,1,.31-.51,1.66,1.66,0,0,1,.44-.36,1.87,1.87,0,0,1,.51-.2,2,2,0,0,1,.54-.07,1.79,1.79,0,0,1,1.41.55,2.3,2.3,0,0,1,.49,1.58v3.6h-1.06v-3.6a1.43,1.43,0,0,0-.28-1,1,1,0,0,0-.81-.33,1.33,1.33,0,0,0-.45.08,1.09,1.09,0,0,0-.38.25,1.16,1.16,0,0,0-.26.4,1.64,1.64,0,0,0-.09.56v3.6h-1.06v-3.6a1.54,1.54,0,0,0-.26-1,.94.94,0,0,0-.78-.32,1.23,1.23,0,0,0-.66.19,2,2,0,0,0-.56.51v4.19Z"/><path class="cls-2" d="M397.34,189.06a2.63,2.63,0,0,1,1,.17,2.12,2.12,0,0,1,.75.49,2.37,2.37,0,0,1,.5.79,3.06,3.06,0,0,1,.17,1.08.66.66,0,0,1,0,.33.22.22,0,0,1-.2.08h-3.72a3.27,3.27,0,0,0,.14.9,1.88,1.88,0,0,0,.36.64,1.47,1.47,0,0,0,.54.38,2,2,0,0,0,.71.12,2.35,2.35,0,0,0,.63-.08,4.45,4.45,0,0,0,.46-.18l.32-.19a.52.52,0,0,1,.24-.08.21.21,0,0,1,.19.1l.3.38a1.9,1.9,0,0,1-.45.4,2.56,2.56,0,0,1-.55.27,3.22,3.22,0,0,1-.61.16,4.44,4.44,0,0,1-.62.05,2.92,2.92,0,0,1-1.08-.2,2.3,2.3,0,0,1-.86-.58,2.5,2.5,0,0,1-.56-.94,3.73,3.73,0,0,1-.21-1.3,3.07,3.07,0,0,1,.19-1.1,2.5,2.5,0,0,1,.52-.88,2.41,2.41,0,0,1,.84-.59A2.57,2.57,0,0,1,397.34,189.06Zm0,.77a1.46,1.46,0,0,0-1.09.41,1.88,1.88,0,0,0-.5,1.11h3a1.7,1.7,0,0,0-.1-.61A1.23,1.23,0,0,0,398,190,1.46,1.46,0,0,0,397.36,189.83Z"/><path class="cls-2" d="M400.23,189.15h.84a.32.32,0,0,1,.2.06.27.27,0,0,1,.11.15l1,3.52a3.38,3.38,0,0,1,.09.41c0,.13.05.25.07.38l.11-.38.12-.41,1.14-3.54a.31.31,0,0,1,.1-.15.33.33,0,0,1,.19-.06h.46a.29.29,0,0,1,.19.06.33.33,0,0,1,.11.15l1.13,3.54c0,.14.08.28.11.41l.09.38c0-.13.05-.25.08-.38l.09-.41,1.06-3.52a.34.34,0,0,1,.31-.21h.79l-1.82,5.64H406c-.1,0-.17-.06-.21-.2l-1.2-3.72a2.76,2.76,0,0,1-.08-.27l-.06-.27-.06.27a2.68,2.68,0,0,1-.07.27l-1.23,3.72a.23.23,0,0,1-.24.2h-.79Z"/><path class="cls-2" d="M411.92,189.06a3.06,3.06,0,0,1,1.12.2,2.34,2.34,0,0,1,.85.58,2.41,2.41,0,0,1,.54.92,3.92,3.92,0,0,1,0,2.41,2.41,2.41,0,0,1-.54.92,2.34,2.34,0,0,1-.85.58,3.06,3.06,0,0,1-1.12.2,3.11,3.11,0,0,1-1.13-.2,2.56,2.56,0,0,1-.86-.58,2.7,2.7,0,0,1-.54-.92,3.92,3.92,0,0,1,0-2.41,2.7,2.7,0,0,1,.54-.92,2.56,2.56,0,0,1,.86-.58A3.11,3.11,0,0,1,411.92,189.06Zm0,5a1.39,1.39,0,0,0,1.21-.55,2.51,2.51,0,0,0,.4-1.53,2.56,2.56,0,0,0-.4-1.54,1.42,1.42,0,0,0-1.21-.55,1.44,1.44,0,0,0-1.23.55,2.56,2.56,0,0,0-.4,1.54,2.51,2.51,0,0,0,.4,1.53A1.42,1.42,0,0,0,411.92,194.05Z"/><path class="cls-2" d="M415.84,194.79v-5.64h.61a.33.33,0,0,1,.23.06.41.41,0,0,1,.09.22l.06.82a2.64,2.64,0,0,1,.66-.88,1.44,1.44,0,0,1,.93-.32,1.29,1.29,0,0,1,.35,0,.69.69,0,0,1,.29.12L419,190c0,.1-.08.15-.18.15l-.23,0a1.22,1.22,0,0,0-.34,0,1.3,1.3,0,0,0-.46.08,1.1,1.1,0,0,0-.37.23,1.72,1.72,0,0,0-.28.36,2.9,2.9,0,0,0-.23.5v3.54Z"/><path class="cls-2" d="M421,186.59v4.8h.26a.58.58,0,0,0,.19,0,.43.43,0,0,0,.16-.13l1.72-1.88a.8.8,0,0,1,.17-.15.54.54,0,0,1,.24,0h.95l-2,2.19a1.23,1.23,0,0,1-.34.31l.19.16.15.21,2.16,2.77h-1a.51.51,0,0,1-.22,0,.37.37,0,0,1-.17-.16l-1.79-2.28a.4.4,0,0,0-.16-.16.57.57,0,0,0-.25,0H421v2.68H419.9v-8.2Z"/><path class="cls-3" d="M127.07,147s-62.17-18.77-65.53-6.55S134,152,128,173.24,74.47,177,49.14,166.51c0,0,59,18.29,64.82,6.37s-64.82-8.15-65.53-32.06S117.51,140.47,127.07,147Z"/><path class="cls-4" d="M82.53,161.63v-.41c-.07-3.9-.12-7.76-.13-10.56V150L88,151.25l1.22.26,1.51.33,1.43.3-.06.47c-.3,2-.66,5.4-1.1,10.15l0,.56Z"/><path class="cls-3" d="M91.05,152.54c-.32,2.21-.7,5.86-1.09,10.19-.37,4-.76,8.63-1.11,13.2-.12,1.45-.23,2.89-.34,4.31-.81,10.57-1.45,19.87-1.45,19.87-1.51-2.86-2.41-11.55-2.93-21-.07-1.31-.14-2.63-.19-4-.22-4.75-.35-9.52-.43-13.7-.08-4.4-.11-8.15-.11-10.55l2.26.49,1.35.29Z"/></svg>