<?xml version="1.0" encoding="utf-8"?>
<!-- Generator: Adobe Illustrator 23.0.6, SVG Export Plug-In . SVG Version: 6.00 Build 0)  -->
<svg version="1.1" id="Layer_1" xmlns="http://www.w3.org/2000/svg" xmlns:xlink="http://www.w3.org/1999/xlink" x="0px" y="0px"
	 viewBox="0 0 280 150" style="enable-background:new 0 0 280 150;" xml:space="preserve">
<style type="text/css">
	.st0{fill-rule:evenodd;clip-rule:evenodd;fill:#FAA61A;}
	.st1{fill-rule:evenodd;clip-rule:evenodd;fill:#0DB14B;}
	.st2{fill-rule:evenodd;clip-rule:evenodd;}
</style>
<g>
	<polygon class="st0" points="81.1,62.1 101.7,62.1 101.7,65.9 81.1,65.9 81.1,62.1 	"/>
	<polygon class="st1" points="81.1,69 101.7,69 100.7,72.7 82.2,72.7 81.1,69 	"/>
	<path class="st2" d="M35.5,76.6c-0.6,0.2-1,0.2-1.3,0.2c-0.7,0-1.1,0-1.9-0.3v-4.7h1.9h1.8h7.5v3.6c-0.7-0.8-1.5-1.6-1.9-1.9
		c-0.4-0.3-1.3-0.5-2-0.5C37.2,73.1,35.5,74.7,35.5,76.6L35.5,76.6z M150.7,71.9V74h-3.5c-2.5,0-3.6,1.4-3.6,2.8
		c0,1.7,0.9,3.2,3.5,6.9l1-0.7c-1.3-1.6-2.2-3.2-2.2-4.4c0-1.4,0.5-2.4,2.2-2.4h2.7v6l2.4,1.7v-12h2.6l-1.3-2.2h-11.5h-1.9h-7h-1.9
		h-3.6h-1.9h-4.3h-1.2h-0.1l1.3,2.2h0.1h1.2h0.6v5h-4.1l0.1-2.9c0-1.6-0.9-4.4-3.7-4.4c-1.8,0-2.8,1.3-2.8,2.7c0,1.5,1.2,3,4.2,3.7
		l-0.1,0.9h-1.3c-0.5,0-0.8,0.4-0.8,0.8c0,0.9,2.6,3.4,3.4,3.4c0.6,0,0.7-0.5,0.8-1.9h4.3v3.1l2.4,1.7v-12h1.3h1.9h0v10.3l2.3,1.7
		v-12h1.3h1.9h2.1v3.7c0,0.3-0.1,0.5-0.3,0.5c-0.5,0-1.1-0.7-1.8-0.7c-0.4,0-0.8,0.6-0.8,0.9c0,0.4,0.5,1.1,1.4,2.3l4.4,5.5l0.9-0.9
		c-1.8-1.9-2.8-3-3.4-3.9c0.9-0.7,1.7-1.6,1.7-2.6v-4.7h2.6h1.9H150.7L150.7,71.9z M118.3,72.7l-0.1,2.1c-1.5-0.3-2.2-1-2.2-2.1
		c0-0.8,0.7-1.7,1.3-1.7C117.7,71.1,118.3,71.5,118.3,72.7L118.3,72.7z M66.9,73.4v-1.5h3.7l-1.3-2.2H56h-2.3h-6.5h-1.8H34.8H33h-8
		l1.3,2.2H30v3.9c0,0.2-0.1,0.3-0.1,0.3c-0.3,0-0.9-0.8-1.4-0.8c-0.4,0-1,0.4-1,0.9c0,0.7,0.7,1.9,1.1,2.5l4.2,5.8l1-1
		c-1.3-1.5-2.3-2.5-3.4-4c0.5-0.4,1.2-1,1.8-1.9c0.7,0.6,1.5,1.3,2.3,1.3c0.4,0,1-0.1,1.6-0.2c0.9,1.4,2.4,2.5,4,2.5
		c1.1,0,2.2-0.5,3.5-1.5v2.5l2.3,1.7v-12h0.7h1.8h6.5h2.3h7.5v1.3c-1.6,0.2-2.5,1.5-2.5,2.8c0,1.4,1.1,2.7,3.2,3.9
		c-1,1.3-3.2,2.2-4.7,2.2c-1.2,0-1.6-0.3-1.6-1c0-0.8,0.8-1.5,3-1.5l-1-2.4c-0.7-0.1-1.9,0.1-2.2,0.4c-0.1-0.1-0.3-0.2-0.4-0.3
		l-0.4-0.6c0-0.1,0-0.2,0-0.2c0-0.7,0.6-1.3,1.5-1.3c0.3,0,1.1,0.1,1.5,0.2L60,73.1c-0.2-0.1-0.7-0.1-1.1-0.1
		c-1.5,0-2.4,0.8-2.7,1.8L55.8,74h-8l1.3,2.2h1.5c-0.3,0.5-0.4,0.9-0.4,1.6c0,1.7,2.1,3.9,4.1,3.9c0.7,0,1.7-0.4,3-1.3
		c0.4,1.6,2.7,3.5,4.8,3.5C65,83.9,69,81,69,77C69,75.9,67.9,74.1,66.9,73.4L66.9,73.4z M56.4,76.2c0.2,0.4,0.5,0.9,0.8,1.2
		c-1.6,1.6-3.1,2.4-4.3,2.4c-0.6,0-0.9-0.2-0.9-0.8c0-0.9,0.8-2.2,1.6-2.5c0.5-0.3,1.3-0.3,2-0.3H56.4L56.4,76.2z M66,79
		c-0.9-0.8-1.4-1.5-1.4-2.4c0-1,0.7-2,1.5-2c0.5,0,0.8,0.4,0.8,1.5C66.9,76.9,66.4,78.5,66,79L66,79z M38.9,79.4
		c-0.7,0-1.3-0.5-1.3-1.4c0-1.4,1-2.6,2.4-2.6c1.2,0,2.6,0.5,3.6,1.5v0.3C42.3,78.1,40,79.4,38.9,79.4L38.9,79.4z"/>
	<path class="st2" d="M20.9,127.8v-5.1H22h1.4h5.2v3.1h0c-0.5-0.9-0.8-1.3-1.2-1.6c-0.3-0.2-1.1-0.4-1.5-0.4c-1.8,0-2.9,1.3-2.9,2.7
		c0,1.5,2,3.2,3.6,3.2c0.6,0,1.6-0.5,2.1-0.9l0,1.8l1.8,1.3v-4c0.4-0.5,2-1.5,2.6-1.5c0.3,0,0.6,0.3,0.6,0.6c0,0.5-0.7,2.1-1.3,3.2
		l1.7,1.2c0.6-0.8,1-2.4,1-3.2c0-1.9-1.3-3.4-2.6-3.4c-0.5,0-1.5,0.4-1.9,0.8v-3h5.9l-1-1.7H22.5h-1.4h-8.9l1,1.7h1.4v5.5
		c0,0.4,0.1,0.7,0.7,1.2c0.4,0.3,4.9,2.9,5.4,3.3c0.3,0.2,0.5,0.5,0.5,0.8c0,0.2-0.2,0.6-0.3,0.8l1.6,1.2c0.3-0.3,0.8-1.1,0.8-1.5
		c0-0.5-0.4-1-0.9-1.3l-4.4-2.7c-1.5-0.9-1.7-1.4-1.7-1.9v-5.3H19v3.8c0,0.7-0.2,1-0.7,1c-0.3,0-0.6-0.1-0.8-0.1l0.8,1.3
		c0.6,0.2,1.2,0.3,1.6,0.3C20.6,129.1,20.9,128.8,20.9,127.8L20.9,127.8z M165.9,122.7h1.4v2.8c0,0.2-0.1,0.3-0.2,0.3
		c-0.3,0-0.8-0.5-1.3-0.5c-0.3,0-0.6,0.4-0.6,0.6c0,0.3,0.3,0.9,1.1,1.7l3.3,4.1l0.7-0.7c-1.3-1.4-2.1-2.3-2.6-2.9
		c0.7-0.5,1.3-1.2,1.3-2v-3.5h3.3l-1-1.7H165h-1.6h-0.6c-1.1-1.8-1.8-3.2-2.7-4c-0.7-0.6-1.3-0.7-1.6-0.7c-0.5,0-1.1,0-1.1,0.4
		c0,0.2,0.1,0.4,0.8,1.8c0.3-0.1,0.8-0.2,1.1-0.2c0.4,0,0.7,0.2,1,0.5c0.5,0.5,1,1.1,1.7,2.2h-1.3h-1.4h-3.7l0.9,1.7h1.3v2.5
		c0,0.5-1,1.1-1.9,1.1c-0.4,0-1.1-0.3-1.5-0.7c0.7-0.5,0.9-0.9,0.9-1.4c0-1.4-2-3.3-3.7-3.3c-0.5,0-1.9,0.4-2.6,0.7l0.9,1.8
		c1.3-0.5,2.6-0.9,3-0.8c0.5,0,0.8,0.2,0.8,0.7c0,0.9-0.9,1.7-2.8,2c-0.4,0.1-0.5,0.2-0.5,0.3c0,0.1,0.6,1,1.1,1.5
		c0.8-0.2,1.7-0.5,2.2-0.8c0.2,0.3,0.4,0.9,0.4,1.4c0,0.9-0.9,1.6-2.1,1.6c-1.1,0-2.2-1-3.1-2.8l-0.7,0.4c1.1,2.3,2.9,3.9,4.5,3.9
		c1.7,0,2.9-1.1,2.9-2.5c0-0.3-0.1-0.8-0.2-1.1l0-0.1c0.4,0.3,1.5,0.6,1.7,0.6c0.2,0,0.5,0,0.7-0.1v2.9l1.8,1.2v-9h0.6h1.4h0.1v7.7
		l1.8,1.2v-9h0.8H165.9L165.9,122.7z M144.5,122.7l-1-1.7h-1.9c-0.3-3.1-1.8-4.5-3.6-4.5c-1.4,0-2.5,1-2.5,2.1
		c0,0.5,0.3,1.1,0.7,1.5l1-0.1c0-0.3,0-0.4,0-0.6c0-0.7,0.6-1.3,1.4-1.3c1.1,0,2.1,1.2,2.2,3h-1.4H138h-12.9l1,1.7h6.6v3.1h0
		c-0.5-0.9-0.8-1.3-1.2-1.6c-0.3-0.2-1-0.4-1.5-0.4c-1.8,0-2.9,1.3-2.9,2.7c0,1.5,2,3.2,3.6,3.2c0.6,0,1.6-0.5,2.1-0.9l0,1.8
		l1.8,1.3v-4c0.4-0.5,2-1.5,2.6-1.5c0.3,0,0.6,0.3,0.6,0.6c0,0.5-0.7,2.1-1.3,3.2l1.7,1.2c0.6-0.8,1-2.4,1-3.2
		c0-1.9-1.3-3.4-2.6-3.4c-0.5,0-1.5,0.4-1.9,0.8v-3h4.5h1.4h0v7.7l1.8,1.2v-9H144.5L144.5,122.7z M132.7,126.9
		c-0.5,0.4-2.6,1.7-3.2,1.7c-0.4,0-0.8-0.4-0.8-1.1c0-0.9,0.9-1.9,1.8-1.9C131.2,125.6,132.1,126,132.7,126.9L132.7,126.9z
		 M120.3,131.7v-9h2.4l-1-1.7h-4.2h-1.4h-7.3h-1.4h-9h-1.8h-5.1h-1.4H82h-1.4h-6.2l1,1.7h2.8v2.9c0,0.1,0,0.2-0.1,0.2
		c-0.2,0-0.7-0.6-1.1-0.6c-0.3,0-0.8,0.3-0.8,0.7c0,0.5,0.5,1.4,0.9,1.9l3.3,4.3l0.8-0.7c-1-1.1-1.8-1.9-2.6-3
		c0.4-0.3,1-0.8,1.4-1.4c0.5,0.5,1.1,1,1.8,1c0.3,0,0.8-0.1,1.2-0.2c0.7,1,1.9,1.9,3.1,1.9c0.8,0,1.7-0.4,2.7-1.2v1.8l1.8,1.2v-9
		h0.6h1.4h5.1h1.8h5.8v0.9c-1.3,0.2-1.9,1.1-1.9,2.1c0,1,0.8,2,2.5,2.9c-0.8,1-2.5,1.7-3.7,1.7c-0.9,0-1.2-0.3-1.2-0.7
		c0-0.6,0.6-1.2,2.3-1.2l-0.8-1.8c-0.5-0.1-1.4,0.1-1.7,0.3c-0.1-0.1-0.2-0.1-0.3-0.2l-0.1-0.8c-0.1,0.1-0.2,0.2-0.3,0.3
		c0,0,0-0.1,0-0.2c0-0.6,0.5-1,1.2-1c0.2,0,0.9,0,1.2,0.1l-0.8-1.6c-0.2,0-0.6-0.1-0.8-0.1c-1.1,0-1.9,0.6-2.1,1.3l-0.3-0.6h-6.2
		l1,1.7h1.2c-0.2,0.3-0.3,0.7-0.3,1.2c0,1.3,1.7,2.9,3.2,2.9c0.5,0,1.4-0.3,2.3-1c0.3,1.2,2.1,2.6,3.7,2.6c2.3,0,5.3-2.2,5.3-5.1
		c0-0.8-0.8-2.1-1.6-2.7v-1.1h1.5h1.4h4.8v1.6h-2.6c-1.9,0-2.7,1.1-2.7,2.1c0,1.2,0.7,2.4,2.6,5.2l0.7-0.6c-1-1.2-1.7-2.4-1.7-3.3
		c0-1,0.4-1.8,1.7-1.8h2v4.5l1.8,1.2v-9h0.6h1.4h0.1v7.7L120.3,131.7L120.3,131.7z M98.8,126c0.2,0.3,0.4,0.7,0.7,0.9
		c-1.3,1.2-2.4,1.8-3.3,1.8c-0.5,0-0.7-0.2-0.7-0.6c0-0.7,0.6-1.6,1.2-1.9c0.4-0.2,1-0.2,1.5-0.2H98.8L98.8,126z M106.2,128
		c-0.7-0.6-1.1-1.1-1.1-1.8c0-0.7,0.5-1.5,1.2-1.5c0.3,0,0.6,0.3,0.6,1.1C106.9,126.5,106.5,127.7,106.2,128L106.2,128z M83,122.7
		h5.8v2.7c-0.5-0.6-1.2-1.2-1.5-1.4c-0.3-0.2-1-0.3-1.6-0.3c-1.8,0-3.2,1.2-3.2,2.5c-0.4,0.1-0.7,0.2-1,0.2c-0.5,0-0.9,0-1.5-0.2
		v-3.5h1.5H83L83,122.7z M85.2,128.4c-0.5,0-1-0.4-1-1.1c0-1.1,0.8-1.9,1.8-1.9c1,0,2,0.4,2.8,1.1v0.2
		C87.8,127.4,86,128.4,85.2,128.4L85.2,128.4z M65,128.1h3.1l0,2.4l1.8,1.2v-9h2l-1-1.7h-9.3h-1.4h-7.1h-1.5H38.8l1,1.7h6.6v3.1
		h-0.1c-0.5-0.9-0.8-1.3-1.2-1.6c-0.3-0.2-1-0.4-1.5-0.4c-1.8,0-2.9,1.3-2.9,2.7c0,1.5,1.9,3.2,3.6,3.2c0.6,0,1.6-0.5,2.1-0.9l0,1.8
		l1.8,1.3v-4c0.4-0.5,2-1.5,2.6-1.5c0.3,0,0.6,0.3,0.6,0.6c0,0.5-0.7,2.1-1.3,3.2l1.7,1.2c0.6-0.8,1-2.4,1-3.2
		c0-1.9-1.3-3.4-2.6-3.4c-0.5,0-1.5,0.4-1.9,0.8v-3h4.4h1.5h4.6v1.6h-2.6c-1.6,0-2.4,0.7-2.4,2.1c0,2.8,2.2,4.6,4.5,4.6
		c0.7,0,1.2-0.2,1.2-0.2l1.4,2.8l0.9-0.5l-1.5-2.7c0.4-0.3,0.7-0.6,0.7-1.1c0-0.8-1.7-1.9-2.2-1.9c-0.4,0-0.6,0.3-0.6,0.5
		c0,0.6,0.3,0.7,0.3,1c0,0.2-0.6,0.6-1.3,0.6c-0.7,0-1.8-0.6-1.8-2c0-1.1,0.7-1.8,1.6-1.8h3.4c0.2,0,0.3-0.2,0.3-0.5v-2.8h0.8h1.4
		h0.6v3.7h-0.6c-0.3,0-0.5,0.2-0.5,0.5c0,0.7,1.8,2.6,2.4,2.6c0.3,0,0.5-0.2,0.5-0.4V128.1L65,128.1z M68.1,122.7v3.7H65v-3.7H68.1
		L68.1,122.7z M46.4,126.9c-0.5,0.4-2.6,1.7-3.2,1.7c-0.4,0-0.8-0.4-0.8-1.1c0-0.9,0.9-1.9,1.8-1.9C44.9,125.6,45.8,126,46.4,126.9
		L46.4,126.9z M28.6,126.9c-0.5,0.4-2.6,1.7-3.2,1.7c-0.4,0-0.8-0.4-0.8-1.1c0-0.9,0.9-1.9,1.8-1.9C27.1,125.6,28,126,28.6,126.9
		L28.6,126.9z"/>
	<path class="st2" d="M47.1,37.2c20.7,0,37.4,16.8,37.4,37.4c0,20.7-16.7,37.4-37.4,37.4C26.4,112,9.7,95.3,9.7,74.6
		C9.7,54,26.4,37.2,47.1,37.2L47.1,37.2z M47.1,40.5c18.8,0,34.1,15.2,34.1,34.1c0,18.8-15.2,34.1-34.1,34.1
		C28.3,108.7,13,93.4,13,74.6C13,55.8,28.3,40.5,47.1,40.5L47.1,40.5z"/>
	<path class="st2" d="M135.6,37.2c20.7,0,37.4,16.8,37.4,37.4c0,20.7-16.8,37.4-37.4,37.4c-20.7,0-37.4-16.8-37.4-37.4
		C98.1,54,114.9,37.2,135.6,37.2L135.6,37.2z M135.6,40.5c18.8,0,34.1,15.2,34.1,34.1c0,18.8-15.3,34.1-34.1,34.1
		c-18.8,0-34.1-15.3-34.1-34.1C101.5,55.8,116.7,40.5,135.6,40.5L135.6,40.5z"/>
	<path class="st2" d="M8.2,72.7c-2.2,1-3.6-2.1-1.2-3.2l13-5.9L102,25.5l7.6-3.3c9.1-3.4,18.1-5.9,26.1-2.1
		c12.4,6.3,10.5,24.8,0.1,33.5c-1.9,1.6-4-0.8-2.4-2.5c15.9-16.8,6.1-37.2-20.3-26.6c-1.7,0.7-3.1,1.2-4.7,1.9
		c-30.1,13.6-60,27.6-90,41.6L8.2,72.7L8.2,72.7z"/>
	<path class="st2" d="M168.1,72.8c-2.1,1-3.6-2.1-1.2-3.2l64.6-29.9l7.6-3.3c9.1-3.4,17.8-6.3,25.8-2.5c12.4,6.3,10.5,24.8,0.1,33.5
		c-1.9,1.6-4-0.8-2.4-2.5c15.8-17.1,6.1-37.5-20-26.1c-1.6,0.7-3.1,1.2-4.7,1.9C214.5,51.3,191.2,61.7,168.1,72.8L168.1,72.8z"/>
</g>
</svg>
